<?xml version="1.0" encoding="utf-8"?>
<!-- Generator: Adobe Illustrator 22.0.1, SVG Export Plug-In . SVG Version: 6.00 Build 0)  -->
<svg version="1.1" id="Capa_1" xmlns="http://www.w3.org/2000/svg" xmlns:xlink="http://www.w3.org/1999/xlink" x="0px" y="0px"
	 viewBox="0 0 595.3 841.9" style="enable-background:new 0 0 595.3 841.9;" xml:space="preserve">
<style type="text/css">
	.st0{fill:#86C8E2;}
	.st1{fill:#FFFFFF;}
</style>
<g>
	<g>
		<g>
			<path class="st0" d="M106.3,88.1c20.9,0,42.4,5.9,60.5,16.6c0.3,0.2,0.7,0.3,1,0.3c0.7,0,1.3-0.3,1.7-1c0.6-0.9,0.2-2.2-0.7-2.7
				c-18.7-11.1-40.9-17.2-62.5-17.2c0,0,0,0,0,0c-1.1,0-2,0.9-2,2C104.3,87.2,105.2,88.1,106.3,88.1z"/>
		</g>
		<g>
			<path class="st0" d="M132.4,99.9c-0.2,1.1,0.6,2.1,1.7,2.3c17.1,2.6,33.7,9.7,46.6,19.9c0.4,0.3,0.8,0.4,1.2,0.4
				c0.6,0,1.2-0.3,1.6-0.8c0.7-0.9,0.5-2.1-0.3-2.8c-13.5-10.6-30.7-18-48.4-20.7C133.6,98.1,132.5,98.9,132.4,99.9z"/>
		</g>
		<g>
			<path class="st0" d="M110.9,112.3c-15.9,8.7-27.1,23.6-29.9,40c-0.2,1.1,0.5,2.1,1.6,2.3c0.1,0,0.2,0,0.3,0c1,0,1.8-0.7,2-1.7
				c2.6-15.2,13-29,27.9-37.1c1-0.5,1.3-1.7,0.8-2.7C113.1,112.1,111.9,111.7,110.9,112.3z"/>
		</g>
		<g>
			<path class="st0" d="M83.4,127.9c-0.9-0.6-2.1-0.4-2.8,0.5c-7.2,10-11.1,21.5-11.3,33.4c0,1.1,0.9,2,2,2c0,0,0,0,0,0
				c1.1,0,2-0.9,2-2c0.2-10.9,3.9-21.9,10.5-31.1C84.5,129.8,84.3,128.5,83.4,127.9z"/>
		</g>
		<g>
			<path class="st0" d="M120.7,96.2c-1.1-0.1-2.1,0.7-2.1,1.8c-0.1,1.1,0.7,2.1,1.8,2.1l8.4,0.7c0.1,0,0.1,0,0.2,0
				c1,0,1.9-0.8,2-1.8c0.1-1.1-0.7-2.1-1.8-2.1L120.7,96.2z"/>
		</g>
		<g>
			<path class="st0" d="M116.2,67.7c2.3,0.4,4.5,0.8,6.7,1.3c0.1,0,0.3,0,0.4,0c0.9,0,1.7-0.6,1.9-1.6c0.2-1.1-0.4-2.1-1.5-2.4
				c-2.3-0.5-4.6-1-7-1.3c-1.1-0.2-2.1,0.6-2.3,1.7C114.4,66.5,115.2,67.6,116.2,67.7z"/>
		</g>
		<g>
			<path class="st0" d="M140.8,72.6c0.4-1-0.1-2.2-1.1-2.6c-3.6-1.4-7.4-2.7-11.2-3.7c-1.1-0.3-2.2,0.3-2.5,1.4
				c-0.3,1.1,0.3,2.2,1.4,2.4c3.7,1,7.3,2.2,10.8,3.6c0.2,0.1,0.5,0.1,0.7,0.1C139.8,73.9,140.5,73.4,140.8,72.6z"/>
		</g>
		<g>
			<path class="st0" d="M143.8,72.8c-0.4,1,0,2.2,1,2.6c2.1,1,4.3,2,6.4,3c0.3,0.1,0.6,0.2,0.9,0.2c0.7,0,1.4-0.4,1.8-1.1
				c0.5-1,0.1-2.2-0.9-2.7c-2.2-1.1-4.4-2.1-6.6-3.1C145.5,71.4,144.3,71.8,143.8,72.8z"/>
		</g>
		<g>
			<path class="st0" d="M120.1,59.4c8.1,2,16,4.7,23.4,8.2c0.3,0.1,0.6,0.2,0.8,0.2c0.8,0,1.5-0.4,1.8-1.2c0.5-1,0-2.2-1-2.6
				c-7.7-3.6-15.8-6.4-24.2-8.4c-1.1-0.3-2.2,0.4-2.4,1.5C118.3,58.1,119,59.2,120.1,59.4z"/>
		</g>
		<g>
			<path class="st0" d="M107.6,80.8c0.9,0.1,1.8,0.2,2.6,0.4c0.1,0,0.2,0,0.3,0c1,0,1.8-0.7,2-1.7c0.2-1.1-0.6-2.1-1.7-2.3
				c-0.9-0.1-1.8-0.3-2.7-0.4c-1.1-0.1-2.1,0.6-2.2,1.7C105.7,79.7,106.5,80.7,107.6,80.8z"/>
		</g>
		<g>
			<path class="st0" d="M84.5,127.5c0.5,0,1-0.2,1.4-0.6c3.4-3.5,7.8-6.2,12.7-7.9c1-0.3,1.6-1.5,1.3-2.5c-0.3-1-1.5-1.6-2.5-1.3
				c-5.5,1.8-10.5,4.9-14.3,8.9c-0.8,0.8-0.7,2.1,0,2.8C83.5,127.3,84,127.5,84.5,127.5z"/>
		</g>
		<g>
			<path class="st0" d="M90.1,152.2c-1.1-0.3-2.2,0.4-2.4,1.5c-2,8-1.4,16.3,1.7,24c0.3,0.8,1.1,1.3,1.9,1.3c0.2,0,0.5,0,0.7-0.1
				c1-0.4,1.5-1.6,1.1-2.6c-2.8-6.9-3.3-14.4-1.6-21.5C91.9,153.5,91.2,152.5,90.1,152.2z"/>
		</g>
		<g>
			<path class="st0" d="M192,146.9C192,146.9,192,146.9,192,146.9c-1.1,0-2,0.9-2,2L190,156c0,1.1,0.9,2,2,2c0,0,0,0,0,0
				c1.1,0,2-0.9,2-2l0.1-7.2C194,147.8,193.1,146.9,192,146.9z"/>
		</g>
		<g>
			<path class="st0" d="M83.4,159.5c0-1.1-0.9-2-2-2c0,0,0,0,0,0c-1.1,0-2,0.9-2,2c0,13.5,4.9,27,13.8,38c0.4,0.5,1,0.7,1.6,0.7
				c0.4,0,0.9-0.1,1.3-0.4c0.9-0.7,1-2,0.3-2.8C88,184.7,83.4,172.1,83.4,159.5z"/>
		</g>
		<g>
			<path class="st0" d="M77.9,164c0.1-1.1-0.8-2-1.9-2.1c-1.1-0.1-2,0.8-2.1,1.9c-0.4,6.6,0.9,13.3,3.9,19.4
				c0.3,0.7,1.1,1.1,1.8,1.1c0.3,0,0.6-0.1,0.9-0.2c1-0.5,1.4-1.7,0.9-2.7C78.7,175.9,77.5,169.9,77.9,164z"/>
		</g>
		<g>
			<path class="st0" d="M96.4,136.4c-0.8-0.7-2.1-0.6-2.8,0.2c-2.6,3.1-4.1,7-4.3,10.9c0,1.1,0.8,2,1.9,2.1c0,0,0,0,0.1,0
				c1.1,0,2-0.9,2-1.9c0.1-3,1.3-6,3.3-8.5C97.3,138.4,97.2,137.1,96.4,136.4z"/>
		</g>
		<g>
			<path class="st0" d="M124.3,49.9c6.8,2.1,13,5.3,18.4,9.3c0.4,0.3,0.8,0.4,1.2,0.4c0.6,0,1.2-0.3,1.6-0.8
				c0.7-0.9,0.5-2.1-0.4-2.8c-5.8-4.3-12.4-7.7-19.6-9.9c-1.1-0.3-2.2,0.3-2.5,1.3C122.6,48.5,123.2,49.6,124.3,49.9z"/>
		</g>
		<g>
			<path class="st0" d="M188.4,162.1c-1.1-0.2-2.1,0.4-2.4,1.5c-2.1,9.4-7.8,18.1-16,24.5c-0.9,0.7-1,1.9-0.3,2.8
				c0.4,0.5,1,0.8,1.6,0.8c0.4,0,0.9-0.1,1.2-0.4c8.9-7,15.1-16.5,17.4-26.8C190.1,163.4,189.5,162.3,188.4,162.1z"/>
		</g>
		<g>
			<path class="st0" d="M158.9,190.9c0.3,0,0.6-0.1,0.9-0.2c5.7-2.7,10.5-6.8,13.9-11.7c0.6-0.9,0.4-2.2-0.5-2.8
				c-0.9-0.6-2.2-0.4-2.8,0.5c-3,4.4-7.2,7.9-12.3,10.4c-1,0.5-1.4,1.7-0.9,2.7C157.4,190.4,158.2,190.9,158.9,190.9z"/>
		</g>
		<g>
			<path class="st0" d="M128.2,43.9l5.5,2.5c0.3,0.1,0.5,0.2,0.8,0.2c0.8,0,1.5-0.4,1.8-1.2c0.5-1,0-2.2-1-2.6l-5.5-2.5
				c-1-0.5-2.2,0-2.6,1C126.8,42.3,127.2,43.4,128.2,43.9z"/>
		</g>
		<g>
			<path class="st0" d="M130.7,39.6c0.4,0.3,0.8,0.5,1.3,0.5c0.6,0,1.1-0.2,1.5-0.7c0.7-0.8,0.6-2.1-0.2-2.8l-0.7-0.6
				c-0.8-0.7-2.1-0.6-2.8,0.2c-0.7,0.8-0.6,2.1,0.2,2.8L130.7,39.6z"/>
		</g>
		<g>
			<path class="st0" d="M140.2,82.9c-1.1-0.3-2.2,0.3-2.5,1.4c-0.3,1.1,0.3,2.2,1.4,2.5c7.8,2.1,15.2,5.1,22.1,8.9
				c2.9,1.6,5.8,3.6,8,5.1c0.3,0.2,0.7,0.4,1.1,0.4c0.6,0,1.2-0.3,1.6-0.9c0.6-0.9,0.4-2.1-0.5-2.8c-2.3-1.6-5.3-3.6-8.4-5.3
				C156,88.2,148.2,85.1,140.2,82.9z"/>
		</g>
		<g>
			<path class="st0" d="M116.4,203.3c-5.6-1-10.7-3.4-15-6.7c-0.9-0.7-2.1-0.5-2.8,0.3c-0.7,0.9-0.5,2.1,0.3,2.8
				c4.7,3.8,10.5,6.3,16.7,7.5c0.1,0,0.2,0,0.4,0c0.9,0,1.8-0.7,2-1.6C118.2,204.5,117.5,203.5,116.4,203.3z"/>
		</g>
		<g>
			<path class="st0" d="M137.9,201.4c-14.4-11.4-22.8-30.6-21.3-48.9c0.1-1.1-0.7-2.1-1.8-2.2c-1.1-0.1-2.1,0.7-2.1,1.8
				c-1.6,19.9,7.1,40,22.8,52.3c0.4,0.3,0.8,0.4,1.2,0.4c0.6,0,1.2-0.3,1.6-0.8C138.9,203.4,138.7,202.1,137.9,201.4z"/>
		</g>
		<g>
			<path class="st0" d="M136.7,119.5c-0.2-1.1-1.3-1.7-2.4-1.5c-11.9,2.7-22.1,10.9-27.4,21.8c-5.3,10.9-5.4,24-0.3,35.1
				c0.3,0.7,1.1,1.2,1.8,1.2c0.3,0,0.6-0.1,0.8-0.2c1-0.5,1.4-1.7,1-2.7c-4.6-9.8-4.5-21.9,0.2-31.6c4.7-9.7,14.2-17.3,24.8-19.7
				C136.2,121.6,136.9,120.5,136.7,119.5z"/>
		</g>
		<g>
			<path class="st0" d="M130.5,203.7c-8-6-14.3-14.1-18.2-23.3c-0.4-1-1.6-1.5-2.6-1.1c-1,0.4-1.5,1.6-1.1,2.6
				c4.2,9.9,10.9,18.5,19.5,24.9c0.4,0.3,0.8,0.4,1.2,0.4c0.6,0,1.2-0.3,1.6-0.8C131.5,205.6,131.4,204.3,130.5,203.7z"/>
		</g>
		<g>
			<path class="st0" d="M111.2,199.5c0.4,0.4,0.9,0.5,1.4,0.5c0.5,0,1.1-0.2,1.5-0.6c0.8-0.8,0.7-2.1-0.1-2.8
				c-10.1-9.5-15.9-23.5-15.3-37.4c0-1.1-0.8-2-1.9-2.1c-1.1,0-2,0.8-2.1,1.9C94.1,174,100.3,189.2,111.2,199.5z"/>
		</g>
		<g>
			<path class="st0" d="M119.7,114.4c-1.2,0.9-2.4,1.8-3.6,2.7c-5.1,3.7-10.5,7.6-14,13.4c-3.9,6.4-6.2,13.7-6.7,20.9
				c-0.1,1.1,0.8,2,1.9,2.1c0,0,0.1,0,0.1,0c1,0,1.9-0.8,2-1.9c0.4-6.6,2.5-13.2,6.1-19.1c3.1-5.1,7.9-8.6,12.9-12.3
				c1.2-0.9,2.5-1.8,3.7-2.7c0.9-0.7,1-1.9,0.4-2.8C121.8,113.9,120.6,113.7,119.7,114.4z"/>
		</g>
		<g>
			<path class="st0" d="M100.5,194.2c0.9-0.6,1.2-1.8,0.6-2.8l-5.7-8.6c-0.6-0.9-1.8-1.2-2.8-0.6c-0.9,0.6-1.2,1.8-0.6,2.8l5.7,8.6
				c0.4,0.6,1,0.9,1.7,0.9C99.8,194.5,100.2,194.4,100.5,194.2z"/>
		</g>
		<g>
			<path class="st0" d="M128.7,168.7c-1.9-6.5-4.9-22.4,7-31.5c4.1-3.1,9.5-4.7,14.6-4.3c0.5,0,0.9,0.2,1.4,0.3
				c0.4,0.1,0.9,0.3,1.5,0.4c0.2,0,0.5,0,0.7,0c0.6,1.3,1.2,2.6,1.6,3.9c-3.2-1.1-6.9-1-10.1,0.3c-1,0.4-1.5,1.6-1,2.6
				s1.6,1.5,2.6,1c2.9-1.3,6.3-1,9,0.6c0,0,0.1,0,0.1,0.1c0,2.5-0.3,4.9-0.9,7.1c-2.1,3.8-6.3,6.4-10.6,6.5c-4.3,0.1-8.8-2.3-11-6
				c-0.6-0.9-1.8-1.2-2.7-0.7c-0.9,0.6-1.2,1.8-0.7,2.7c2.9,4.9,8.4,7.9,14.1,7.9c0.1,0,0.3,0,0.4,0c2.1-0.1,4.1-0.5,6-1.4
				c-1.1,1.3-2.3,2.5-3.6,3.6c-0.9,0.7-1,1.9-0.3,2.8c0.4,0.5,1,0.8,1.6,0.8c0.4,0,0.9-0.1,1.2-0.4c6.8-5.3,10.5-13.5,10.5-23
				c0-9.6-6.7-17.4-12.3-22.3c-8.3-7.3-19.6-12.3-30.9-13.8c-12.7-1.7-24.2,1.2-32.5,8.2c-0.8,0.7-0.9,2-0.2,2.8
				c0.7,0.8,2,0.9,2.8,0.2c7.4-6.3,17.8-8.9,29.4-7.3c10.6,1.4,21.1,6.1,28.8,12.9c1.7,1.5,3.8,3.5,5.7,6.1c-0.1,0-0.2,0-0.2,0
				c-6.1-0.5-12.5,1.4-17.4,5.1c-9.8,7.4-12.9,20.5-8.4,35.8c4,13.6,12.1,26.2,23,35.4c0.4,0.3,0.8,0.5,1.3,0.5
				c0.6,0,1.1-0.2,1.5-0.7c0.7-0.8,0.6-2.1-0.2-2.8C140.1,193.5,132.4,181.6,128.7,168.7z"/>
		</g>
		<g>
			<path class="st0" d="M138.8,180.3c0.1,0,0.1,0,0.2,0c12.9-1.4,24.7-10.4,29.5-22.4c4.8-12,2.4-26.7-5.9-36.6
				c-0.7-0.8-2-0.9-2.8-0.2c-0.8,0.7-0.9,2-0.2,2.8c7.4,8.8,9.5,21.8,5.3,32.5c-4.3,10.7-14.8,18.7-26.2,19.9
				c-1.1,0.1-1.9,1.1-1.8,2.2C136.9,179.6,137.8,180.3,138.8,180.3z"/>
		</g>
		<g>
			<path class="st0" d="M170.5,170.6c0.5-1,0.2-2.2-0.8-2.7c-1-0.5-2.2-0.2-2.7,0.8c-4.7,8.6-12.7,15.3-22,18.4
				c-1,0.4-1.6,1.5-1.3,2.5c0.3,0.8,1.1,1.4,1.9,1.4c0.2,0,0.4,0,0.6-0.1C156.5,187.5,165.3,180.1,170.5,170.6z"/>
		</g>
		<g>
			<path class="st0" d="M175.4,159.3c5-10,4.8-22.3-0.5-32.1c-0.5-1-1.7-1.3-2.7-0.8c-1,0.5-1.3,1.7-0.8,2.7
				c4.7,8.7,4.8,19.6,0.5,28.4c-0.5,1-0.1,2.2,0.9,2.7c0.3,0.1,0.6,0.2,0.9,0.2C174.4,160.5,175.1,160,175.4,159.3z"/>
		</g>
		<g>
			<path class="st0" d="M152.8,190.8l-6.2,1.5c-1.1,0.3-1.7,1.3-1.5,2.4c0.2,0.9,1,1.5,1.9,1.5c0.2,0,0.3,0,0.5-0.1l6.2-1.5
				c1.1-0.3,1.7-1.3,1.5-2.4C154.9,191.2,153.8,190.6,152.8,190.8z"/>
		</g>
		<g>
			<path class="st0" d="M164.6,192.1c-3.4,2.9-7.4,4.9-11.8,5.8c-1.1,0.2-1.8,1.3-1.6,2.4c0.2,0.9,1,1.6,2,1.6c0.1,0,0.3,0,0.4,0
				c5-1,9.7-3.3,13.6-6.7c0.8-0.7,0.9-2,0.2-2.8C166.7,191.5,165.4,191.4,164.6,192.1z"/>
		</g>
		<g>
			<path class="st0" d="M188.9,143.3c0.1,1,1,1.8,2,1.8c0.1,0,0.1,0,0.2,0c1.1-0.1,1.9-1.1,1.8-2.2c-0.5-4.1-2.2-8-4.9-11.1
				c-0.7-0.8-2-0.9-2.8-0.2c-0.8,0.7-0.9,2-0.2,2.8C187.2,136.9,188.6,140,188.9,143.3z"/>
		</g>
		<g>
			<path class="st0" d="M175.1,173.1c0.4,0.3,0.8,0.4,1.2,0.4c0.6,0,1.2-0.3,1.6-0.8c3.7-5.2,6-11.2,6.7-17.5
				c0.1-1.1-0.7-2.1-1.8-2.2c-1.1-0.1-2.1,0.7-2.2,1.8c-0.6,5.6-2.7,11-6,15.6C174,171.2,174.2,172.4,175.1,173.1z"/>
		</g>
		<g>
			<path class="st0" d="M181.9,137.6c-1.1,0.3-1.6,1.5-1.3,2.5c0.9,2.7,1.1,5.7,0.8,8.5c-0.1,1.1,0.6,2.1,1.7,2.2c0.1,0,0.2,0,0.3,0
				c1,0,1.8-0.7,2-1.7c0.5-3.4,0.1-7-0.9-10.2C184.1,137.8,183,137.2,181.9,137.6z"/>
		</g>
		<g>
			<path class="st0" d="M128.5,127.7c-5.8,3.3-10.4,8.5-13,14.7c-0.4,1,0.1,2.2,1.1,2.6c0.2,0.1,0.5,0.2,0.8,0.2
				c0.8,0,1.5-0.5,1.8-1.2c2.2-5.4,6.2-9.9,11.3-12.8c1-0.5,1.3-1.8,0.7-2.7C130.7,127.4,129.4,127.1,128.5,127.7z"/>
		</g>
		<g>
			<path class="st0" d="M139.8,108.7c-0.4,1,0.1,2.2,1.1,2.6c5.6,2.3,10.7,5.5,15.3,9.4c0.4,0.3,0.8,0.5,1.3,0.5
				c0.6,0,1.1-0.2,1.5-0.7c0.7-0.8,0.6-2.1-0.2-2.8c-4.9-4.1-10.4-7.5-16.3-10C141.4,107.2,140.2,107.7,139.8,108.7z"/>
		</g>
		<g>
			<path class="st0" d="M169,124.8c0.4,0.5,1,0.8,1.6,0.8c0.4,0,0.8-0.1,1.2-0.4c0.9-0.7,1.1-1.9,0.4-2.8
				c-3.2-4.2-7.3-7.9-11.8-10.6c-0.9-0.6-2.2-0.3-2.7,0.7c-0.6,0.9-0.3,2.2,0.7,2.7C162.4,117.6,166.1,120.9,169,124.8z"/>
		</g>
		<g>
			<path class="st0" d="M97,97.4c0.3,0,0.5,0,0.8-0.2c6.9-2.9,14.5-3.8,22-2.6c1.1,0.2,2.1-0.6,2.3-1.7c0.2-1.1-0.6-2.1-1.7-2.3
				c-8.2-1.3-16.5-0.3-24.1,2.8c-1,0.4-1.5,1.6-1.1,2.6C95.4,96.9,96.2,97.4,97,97.4z"/>
		</g>
		<g>
			<path class="st0" d="M94,106.1c0.3,0,0.7-0.1,1-0.3c5.4-3.2,11.7-4.5,17.9-3.8c1.1,0.1,2.1-0.7,2.2-1.8c0.1-1.1-0.7-2.1-1.8-2.2
				c-7.1-0.8-14.3,0.7-20.4,4.4c-0.9,0.6-1.3,1.8-0.7,2.7C92.7,105.7,93.3,106.1,94,106.1z"/>
		</g>
		<g>
			<path class="st0" d="M170.6,105.4c-0.7,0.9-0.5,2.1,0.4,2.8l5.4,4.1c0.4,0.3,0.8,0.4,1.2,0.4c0.6,0,1.2-0.3,1.6-0.8
				c0.7-0.9,0.5-2.1-0.4-2.8l-5.4-4.1C172.6,104.3,171.3,104.5,170.6,105.4z"/>
		</g>
		<g>
			<path class="st0" d="M114,74.4l23.1,5.4c0.2,0,0.3,0.1,0.5,0.1c0.9,0,1.7-0.6,1.9-1.5c0.3-1.1-0.4-2.1-1.5-2.4l-23.1-5.4
				c-1.1-0.3-2.1,0.4-2.4,1.5C112.3,73.1,112.9,74.2,114,74.4z"/>
		</g>
		<g>
			<path class="st0" d="M141.9,79.5c-0.3,1.1,0.4,2.2,1.4,2.4c6,1.5,11.6,3.9,16.9,7c0.3,0.2,0.7,0.3,1,0.3c0.7,0,1.3-0.3,1.7-1
				c0.6-0.9,0.3-2.2-0.7-2.7c-5.6-3.3-11.7-5.8-18-7.5C143.3,77.7,142.2,78.4,141.9,79.5z"/>
		</g>
		<g>
			<path class="st0" d="M144.1,150.1c2.5,0,5.1-0.8,7.1-2.3c0.9-0.7,1.1-1.9,0.4-2.8c-0.7-0.9-1.9-1.1-2.8-0.4
				c-3.2,2.4-8.2,1.9-10.8-1.1c-0.7-0.8-2-0.9-2.8-0.2c-0.8,0.7-0.9,2-0.2,2.8C137.3,148.8,140.7,150.1,144.1,150.1z"/>
		</g>
		<g>
			<path class="st0" d="M144.9,166c-0.5-1-1.7-1.3-2.7-0.8c-2.9,1.5-6.3,2.1-9.5,1.6c-1.1-0.2-2.1,0.6-2.3,1.7
				c-0.2,1.1,0.6,2.1,1.7,2.3c1,0.2,2,0.2,3,0.2c3.1,0,6.3-0.8,9-2.2C145.1,168.2,145.4,167,144.9,166z"/>
		</g>
		<g>
			<path class="st0" d="M117.2,78c-1.1-0.1-2.1,0.7-2.2,1.8c-0.1,1.1,0.7,2.1,1.8,2.2c5,0.4,10,1.4,14.8,2.9
				c0.2,0.1,0.4,0.1,0.6,0.1c0.8,0,1.6-0.5,1.9-1.4c0.3-1.1-0.3-2.2-1.3-2.5C127.8,79.4,122.5,78.4,117.2,78z"/>
		</g>
	</g>
	<g>
		<path d="M233.4,119.9c-6.8,0-12.3-1.2-16.8-5.9l7-7c2.3,2.3,6.4,3.1,9.9,3.1c4.3,0,6.4-1.4,6.4-4c0-1.1-0.2-1.9-0.9-2.6
			c-0.6-0.6-1.5-1-2.9-1.2l-5.4-0.7c-3.9-0.6-6.9-1.9-8.9-3.9c-2.1-2.1-3.1-5.1-3.1-8.9c0-8.1,6.1-14,16.2-14
			c6.4,0,11.1,1.5,14.9,5.3l-6.9,6.9c-2.8-2.8-6.5-2.6-8.4-2.6c-3.8,0-5.4,2.2-5.4,4.1c0,0.6,0.2,1.4,0.9,2.1
			c0.6,0.6,1.5,1.1,3.1,1.3l5.4,0.7c4,0.6,6.9,1.8,8.7,3.7c2.4,2.3,3.3,5.6,3.3,9.7C250.5,115,242.7,119.9,233.4,119.9z"/>
		<path d="M285.5,114.9c-3.2,3.2-7,5-12.4,5s-9.2-1.7-12.4-5c-4.7-4.7-4.5-10.9-4.5-17.6c0-6.7-0.2-12.9,4.5-17.6
			c3.2-3.2,7-5,12.4-5s9.2,1.7,12.4,5c4.7,4.7,4.5,10.9,4.5,17.6C290,104,290.2,110.2,285.5,114.9z M277.5,86.4
			c-0.8-1.1-2.4-1.9-4.4-1.9s-3.5,0.9-4.4,1.9c-1,1.3-1.6,2.8-1.6,10.9c0,8.1,0.6,9.5,1.6,10.8c0.8,1.1,2.4,2,4.4,2s3.5-0.9,4.4-2
			c1-1.3,1.6-2.7,1.6-10.8C279.1,89.2,278.5,87.7,277.5,86.4z"/>
		<path d="M320,119.5l-7.8-16.5h-3.7v16.5h-10.9V75.2h17.6c9.8,0,15.1,7,15.1,14.3c0,6-3.7,9.8-7.2,11.6l9.6,18.5H320z M314.6,84.9
			h-6.2v9h6.2c3,0,4.7-2.2,4.7-4.5C319.3,87.1,317.6,84.9,314.6,84.9z"/>
		<path d="M357.4,119.5h-19.3V75.2h18.4c9.2,0,14.1,5.2,14.1,12.8c0,5-3.5,7.8-4.9,8.8c1.8,1.1,5.5,3.4,5.5,9.7
			C371.3,114.9,365.4,119.5,357.4,119.5z M355.8,84.9H349v7.2h6.8c3,0,3.9-1.9,3.9-3.6C359.8,86.8,358.8,84.9,355.8,84.9z
			 M356.4,101.9H349v7.8h7.3c3,0,4-2.1,4-3.9C360.4,103.9,359.4,101.9,356.4,101.9z"/>
		<path d="M406.6,114.9c-3.2,3.2-7,5-12.4,5c-5.4,0-9.2-1.7-12.4-5c-4.7-4.7-4.5-10.9-4.5-17.6c0-6.7-0.2-12.9,4.5-17.6
			c3.2-3.2,7-5,12.4-5c5.4,0,9.2,1.7,12.4,5c4.7,4.7,4.5,10.9,4.5,17.6C411.1,104,411.3,110.2,406.6,114.9z M398.6,86.4
			c-0.8-1.1-2.4-1.9-4.4-1.9c-2,0-3.5,0.9-4.4,1.9c-1,1.3-1.6,2.8-1.6,10.9c0,8.1,0.6,9.5,1.6,10.8c0.8,1.1,2.4,2,4.4,2
			c2,0,3.5-0.9,4.4-2c1-1.3,1.6-2.7,1.6-10.8C400.2,89.2,399.6,87.7,398.6,86.4z"/>
		<path d="M233.4,172.6c-6.8,0-12.3-1.2-16.8-5.9l7-7c2.3,2.3,6.4,3.1,9.9,3.1c4.3,0,6.4-1.4,6.4-4c0-1.1-0.2-1.9-0.9-2.6
			c-0.6-0.6-1.5-1-2.9-1.2l-5.4-0.7c-3.9-0.6-6.9-1.9-8.9-3.9c-2.1-2.1-3.1-5.1-3.1-8.9c0-8.1,6.1-14,16.2-14
			c6.4,0,11.1,1.5,14.9,5.3l-6.9,6.9c-2.8-2.8-6.5-2.6-8.4-2.6c-3.8,0-5.4,2.2-5.4,4.1c0,0.6,0.2,1.4,0.9,2.1
			c0.6,0.6,1.5,1.1,3.1,1.3l5.4,0.7c4,0.6,6.9,1.8,8.7,3.7c2.4,2.3,3.3,5.6,3.3,9.7C250.5,167.6,242.7,172.6,233.4,172.6z"/>
		<path d="M285.5,167.6c-3.2,3.2-7,5-12.4,5s-9.2-1.7-12.4-5c-4.7-4.7-4.5-10.9-4.5-17.6c0-6.7-0.2-12.9,4.5-17.6
			c3.2-3.2,7-5,12.4-5s9.2,1.7,12.4,5c4.7,4.7,4.5,10.9,4.5,17.6C290,156.7,290.2,162.9,285.5,167.6z M277.5,139.1
			c-0.8-1.1-2.4-1.9-4.4-1.9s-3.5,0.9-4.4,1.9c-1,1.3-1.6,2.8-1.6,10.9c0,8.1,0.6,9.5,1.6,10.8c0.8,1.1,2.4,2,4.4,2s3.5-0.9,4.4-2
			c1-1.3,1.6-2.7,1.6-10.8C279.1,141.9,278.5,140.4,277.5,139.1z"/>
		<path d="M297.5,172.2v-44.3h10.9v34.6h18.6v9.7H297.5z"/>
		<path d="M333.4,172.2v-44.3h10.9v44.3H333.4z"/>
		<path d="M381.7,167.8c-3.1,3.1-7.3,4.4-12,4.4h-16.4v-44.3h16.4c4.6,0,8.9,1.3,12,4.4c5.2,5.2,4.6,10.8,4.6,17.8
			S386.8,162.7,381.7,167.8z M374.2,140.1c-1-1.5-2.5-2.5-5.2-2.5h-4.8v24.9h4.8c2.7,0,4.2-1,5.2-2.5c0.9-1.2,1.2-2.4,1.2-10
			C375.4,142.6,375.1,141.3,374.2,140.1z"/>
		<path d="M418,172.2l-2.1-6.6h-13.6l-2.2,6.6h-11.4l16.1-44.3h8.4l16.1,44.3H418z M409.3,144.7l-4,11.8h7.7L409.3,144.7z"/>
		<path d="M456.3,172.2l-7.8-16.5h-3.7v16.5h-10.9v-44.3h17.6c9.8,0,15.1,7,15.1,14.3c0,6-3.7,9.8-7.2,11.6l9.6,18.5H456.3z
			 M450.9,137.6h-6.2v9h6.2c3,0,4.7-2.2,4.7-4.5C455.7,139.8,453.9,137.6,450.9,137.6z"/>
		<path d="M474.5,172.2v-44.3h10.9v44.3H474.5z"/>
		<path d="M522.2,167.6c-3.2,3.2-7,5-12.4,5s-9.2-1.7-12.4-5c-4.7-4.7-4.5-10.9-4.5-17.6c0-6.7-0.2-12.9,4.5-17.6
			c3.2-3.2,7-5,12.4-5s9.2,1.7,12.4,5c4.7,4.7,4.5,10.9,4.5,17.6C526.6,156.7,526.8,162.9,522.2,167.6z M514.1,139.1
			c-0.8-1.1-2.4-1.9-4.4-1.9s-3.5,0.9-4.4,1.9c-1,1.3-1.6,2.8-1.6,10.9c0,8.1,0.6,9.5,1.6,10.8c0.8,1.1,2.4,2,4.4,2s3.5-0.9,4.4-2
			c1-1.3,1.6-2.7,1.6-10.8C515.7,141.9,515.1,140.4,514.1,139.1z"/>
	</g>
	<g>
		<path d="M223.7,204.9h-1.2v-4.8h-4.8v-1.2h4.8v-4.7h1.2v4.7h4.7v1.2h-4.7V204.9z"/>
		<path d="M249.3,205.2c-1.2,0.9-2.6,1.4-4.1,1.4c-1.8,0-3.5-0.7-4.7-1.9c-1.7-1.7-1.7-3.4-1.7-7.6c0-4.2,0-5.9,1.7-7.6
			c1.2-1.2,2.9-1.9,4.7-1.9c1.8,0,3.5,0.7,4.7,1.9c1.7,1.7,1.7,3.4,1.7,7.6c0,3.8,0,5.6-1.3,7.2l2.2,2.2l-0.9,0.9L249.3,205.2z
			 M248.7,190.3c-0.9-0.9-2.2-1.4-3.6-1.4c-1.3,0-2.6,0.5-3.6,1.4c-1.3,1.3-1.4,2.8-1.4,6.8c0,4,0.1,5.5,1.4,6.8
			c0.9,0.9,2.2,1.4,3.6,1.4c1.2,0,2.3-0.4,3.2-1.1l-2.6-2.6l0.9-0.9l2.6,2.6c0.8-1.2,0.9-2.8,0.9-6.2
			C250.1,193.1,250,191.6,248.7,190.3z"/>
		<path d="M262.8,206.6c-3.8,0-6.4-2.6-6.4-6.2v-12.7h1.4v12.5c0,3.1,2,5.2,5,5.2c3,0,5-2.1,5-5.2v-12.5h1.4v12.7
			C269.2,204,266.5,206.6,262.8,206.6z"/>
		<path d="M274.7,187.7h11.4v1.3h-10v7.4h8.5v1.3h-8.5v7.6h10v1.3h-11.4V187.7z"/>
		<path d="M303.4,206.6c-3.8,0-6.4-2.6-6.4-6.2v-12.7h1.4v12.5c0,3.1,2,5.2,5,5.2c3,0,5-2.1,5-5.2v-12.5h1.4v12.7
			C309.8,204,307.1,206.6,303.4,206.6z"/>
		<path d="M316.7,190.2v16.3h-1.4v-18.8h1.4l10.8,16.3v-16.3h1.4v18.8h-1.4L316.7,190.2z"/>
		<path d="M345,206.5l-6.2-18.8h1.5l5.3,16.3l5.3-16.3h1.5l-6.2,18.8H345z"/>
		<path d="M364.1,201.9h-8.7l-1.6,4.6h-1.5l6.9-18.8h1.3l6.9,18.8h-1.5L364.1,201.9z M355.8,200.6h7.9l-3.9-11L355.8,200.6z"/>
		<path d="M375.2,206.6c-2.8,0-4.5-0.8-6.2-2.5l1-1c1.7,1.7,3.1,2.2,5.3,2.2c3,0,4.8-1.4,4.8-3.9c0-1.1-0.3-2-1-2.6
			c-0.7-0.6-1.2-0.8-2.7-1l-2.2-0.3c-1.4-0.2-2.5-0.7-3.3-1.4c-1-0.8-1.5-2-1.5-3.5c0-3.2,2.2-5.1,5.8-5.1c2.3,0,3.8,0.6,5.4,2
			l-0.9,0.9c-1.1-1.1-2.3-1.7-4.6-1.7c-2.7,0-4.3,1.5-4.3,3.9c0,1.1,0.3,1.9,1,2.5c0.7,0.6,1.7,1,2.8,1.2l2,0.3
			c1.8,0.2,2.6,0.6,3.3,1.2c1,0.8,1.6,2.1,1.6,3.6C381.5,204.6,379.1,206.6,375.2,206.6z"/>
		<path d="M396.4,204.7c-1.2,1.2-2.9,1.9-4.7,1.9c-1.8,0-3.5-0.7-4.7-1.9c-1.7-1.7-1.7-3.4-1.7-7.6c0-4.2,0-5.9,1.7-7.6
			c1.2-1.2,2.9-1.9,4.7-1.9c1.8,0,3.5,0.7,4.7,1.9c1.7,1.7,1.7,3.4,1.7,7.6C398.1,201.3,398.1,203,396.4,204.7z M395.2,190.3
			c-0.9-0.9-2.2-1.4-3.6-1.4c-1.3,0-2.6,0.5-3.6,1.4c-1.3,1.3-1.4,2.8-1.4,6.8c0,4,0.1,5.5,1.4,6.8c0.9,0.9,2.2,1.4,3.6,1.4
			c1.3,0,2.6-0.5,3.6-1.4c1.3-1.3,1.4-2.8,1.4-6.8C396.7,193.1,396.6,191.6,395.2,190.3z"/>
		<path d="M420.9,204.8c-1.1,1.1-2.7,1.7-4.7,1.7h-6.3v-18.8h6.3c2,0,3.6,0.6,4.7,1.7c1.9,1.9,1.8,4.9,1.8,7.4
			C422.7,199.4,422.8,202.9,420.9,204.8z M419.9,190.4c-1.1-1.1-2.5-1.4-4-1.4h-4.5v16.2h4.5c1.5,0,3-0.3,4-1.4
			c1.5-1.6,1.4-4.8,1.4-6.9C421.2,194.7,421.3,192,419.9,190.4z"/>
		<path d="M427.7,187.7h11.4v1.3h-10v7.4h8.5v1.3h-8.5v7.6h10v1.3h-11.4V187.7z"/>
		<path d="M459.6,201.9h-8.7l-1.6,4.6h-1.5l6.9-18.8h1.3l6.9,18.8h-1.5L459.6,201.9z M451.3,200.6h7.9l-3.9-11L451.3,200.6z"/>
		<path d="M476.4,204.5c-1.2,1.4-3,2.2-4.9,2.2c-1.8,0-3.5-0.7-4.7-1.9c-1.7-1.7-1.7-3.4-1.7-7.6c0-4.2,0-5.9,1.7-7.6
			c1.2-1.2,2.9-1.9,4.7-1.9c3.3,0,5.8,2.2,6.4,5.5h-1.4c-0.6-2.6-2.5-4.2-5-4.2c-1.3,0-2.6,0.5-3.6,1.4c-1.3,1.3-1.4,2.8-1.4,6.8
			c0,4,0.1,5.5,1.4,6.8c0.9,0.9,2.2,1.4,3.6,1.4c1.5,0,2.9-0.6,3.9-1.8c0.8-1,1.1-2.1,1.1-3.7v-1.7h-5v-1.3h6.5v3.1
			C477.9,201.9,477.6,203.3,476.4,204.5z"/>
		<path d="M489.1,206.6c-3.8,0-6.4-2.6-6.4-6.2v-12.7h1.4v12.5c0,3.1,2,5.2,5,5.2c3,0,5-2.1,5-5.2v-12.5h1.4v12.7
			C495.5,204,492.9,206.6,489.1,206.6z"/>
		<path d="M510.5,201.9h-8.7l-1.6,4.6h-1.5l6.9-18.8h1.3l6.9,18.8h-1.5L510.5,201.9z M502.2,200.6h7.9l-3.9-11L502.2,200.6z"/>
	</g>
</g>
<g>
	<g>
		<g>
			<path class="st0" d="M-487.2,381.9c21.1,0,42.7,6,60.9,16.8c0.3,0.2,0.7,0.3,1,0.3c0.7,0,1.4-0.4,1.7-1c0.6-1,0.3-2.2-0.7-2.8
				c-18.8-11.2-41.1-17.3-62.9-17.3c0,0,0,0,0,0c-1.1,0-2,0.9-2,2C-489.2,381-488.3,381.9-487.2,381.9z"/>
		</g>
		<g>
			<path class="st0" d="M-460.9,393.9c-0.2,1.1,0.6,2.1,1.7,2.3c17.2,2.6,33.9,9.7,46.9,20c0.4,0.3,0.8,0.4,1.2,0.4
				c0.6,0,1.2-0.3,1.6-0.8c0.7-0.9,0.5-2.1-0.3-2.8c-13.5-10.7-30.9-18.1-48.8-20.8C-459.7,392-460.8,392.8-460.9,393.9z"/>
		</g>
		<g>
			<path class="st0" d="M-482.5,406.3c-16,8.7-27.3,23.8-30.1,40.2c-0.2,1.1,0.5,2.1,1.6,2.3c0.1,0,0.2,0,0.3,0c1,0,1.8-0.7,2-1.7
				c2.6-15.3,13.1-29.2,28.1-37.4c1-0.5,1.3-1.8,0.8-2.7C-480.3,406.1-481.5,405.7-482.5,406.3z"/>
		</g>
		<g>
			<path class="st0" d="M-510.3,422c-0.9-0.6-2.2-0.4-2.8,0.5c-7.3,10.1-11.2,21.7-11.3,33.6c0,1.1,0.9,2,2,2c0,0,0,0,0,0
				c1.1,0,2-0.9,2-2c0.2-10.9,3.9-22.1,10.6-31.3C-509.2,423.9-509.4,422.6-510.3,422z"/>
		</g>
		<g>
			<path class="st0" d="M-472.7,390.1c-1.1-0.1-2.1,0.7-2.2,1.8c-0.1,1.1,0.7,2.1,1.8,2.2l8.4,0.7c0.1,0,0.1,0,0.2,0
				c1,0,1.9-0.8,2-1.8c0.1-1.1-0.7-2.1-1.8-2.2L-472.7,390.1z"/>
		</g>
		<g>
			<path class="st0" d="M-477.2,361.4c2.3,0.4,4.5,0.8,6.8,1.3c0.1,0,0.3,0.1,0.4,0.1c0.9,0,1.7-0.6,2-1.6c0.2-1.1-0.4-2.2-1.5-2.4
				c-2.3-0.5-4.7-1-7-1.3c-1.1-0.2-2.1,0.6-2.3,1.7C-479,360.2-478.3,361.3-477.2,361.4z"/>
		</g>
		<g>
			<path class="st0" d="M-452.4,366.3c0.4-1-0.1-2.2-1.1-2.6c-3.6-1.4-7.4-2.7-11.3-3.7c-1.1-0.3-2.2,0.3-2.5,1.4
				c-0.3,1.1,0.3,2.2,1.4,2.5c3.7,1,7.4,2.2,10.9,3.6c0.2,0.1,0.5,0.1,0.7,0.1C-453.5,367.6-452.7,367.1-452.4,366.3z"/>
		</g>
		<g>
			<path class="st0" d="M-449.4,366.6c-0.5,1,0,2.2,1,2.7c2.2,1,4.3,2,6.4,3c0.3,0.1,0.6,0.2,0.9,0.2c0.7,0,1.4-0.4,1.8-1.1
				c0.5-1,0.1-2.2-0.9-2.7c-2.2-1.1-4.4-2.1-6.6-3.1C-447.8,365.1-449,365.6-449.4,366.6z"/>
		</g>
		<g>
			<path class="st0" d="M-473.3,353.1c8.1,2,16.1,4.7,23.6,8.2c0.3,0.1,0.6,0.2,0.8,0.2c0.8,0,1.5-0.4,1.8-1.2c0.5-1,0-2.2-1-2.7
				c-7.8-3.6-15.9-6.4-24.3-8.5c-1.1-0.3-2.2,0.4-2.4,1.5C-475.1,351.7-474.4,352.8-473.3,353.1z"/>
		</g>
		<g>
			<path class="st0" d="M-485.9,374.6c0.9,0.1,1.8,0.2,2.6,0.4c0.1,0,0.2,0,0.3,0c1,0,1.8-0.7,2-1.7c0.2-1.1-0.6-2.1-1.7-2.3
				c-0.9-0.1-1.8-0.3-2.8-0.4c-1.1-0.1-2.1,0.6-2.3,1.7C-487.8,373.5-487,374.5-485.9,374.6z"/>
		</g>
		<g>
			<path class="st0" d="M-509.1,421.5c0.5,0,1.1-0.2,1.4-0.6c3.4-3.5,7.8-6.3,12.8-7.9c1.1-0.3,1.6-1.5,1.3-2.5
				c-0.3-1.1-1.5-1.6-2.5-1.3c-5.6,1.8-10.5,4.9-14.4,8.9c-0.8,0.8-0.7,2.1,0.1,2.8C-510.2,421.4-509.6,421.5-509.1,421.5z"/>
		</g>
		<g>
			<path class="st0" d="M-503.4,446.5c-1.1-0.3-2.2,0.4-2.4,1.5c-2,8-1.4,16.4,1.7,24.1c0.3,0.8,1.1,1.3,1.9,1.3
				c0.2,0,0.5,0,0.7-0.1c1-0.4,1.5-1.6,1.1-2.6c-2.8-7-3.3-14.5-1.6-21.7C-501.7,447.8-502.4,446.7-503.4,446.5z"/>
		</g>
		<g>
			<path class="st0" d="M-400.9,441.1C-400.9,441.1-400.9,441.1-400.9,441.1c-1.1,0-2,0.9-2,2l-0.1,7.2c0,1.1,0.9,2,2,2c0,0,0,0,0,0
				c1.1,0,2-0.9,2-2l0.1-7.2C-398.9,442-399.8,441.1-400.9,441.1z"/>
		</g>
		<g>
			<path class="st0" d="M-510.2,453.8c0-1.1-0.9-2-2-2c0,0,0,0,0,0c-1.1,0-2,0.9-2,2c0,13.6,5,27.2,13.9,38.3c0.4,0.5,1,0.7,1.6,0.7
				c0.4,0,0.9-0.1,1.3-0.4c0.9-0.7,1-2,0.3-2.8C-505.6,479.1-510.2,466.5-510.2,453.8z"/>
		</g>
		<g>
			<path class="st0" d="M-515.8,458.3c0.1-1.1-0.8-2.1-1.9-2.1c-1.1-0.1-2.1,0.8-2.1,1.9c-0.4,6.6,0.9,13.4,3.9,19.5
				c0.3,0.7,1.1,1.1,1.8,1.1c0.3,0,0.6-0.1,0.9-0.2c1-0.5,1.4-1.7,0.9-2.7C-514.9,470.3-516.1,464.2-515.8,458.3z"/>
		</g>
		<g>
			<path class="st0" d="M-497.2,430.5c-0.8-0.7-2.1-0.6-2.8,0.2c-2.6,3.2-4.2,7.1-4.3,11c0,1.1,0.8,2,1.9,2.1c0,0,0,0,0.1,0
				c1.1,0,2-0.9,2-1.9c0.1-3,1.3-6.1,3.4-8.5C-496.2,432.5-496.3,431.3-497.2,430.5z"/>
		</g>
		<g>
			<path class="st0" d="M-469.1,343.5c6.8,2.1,13,5.3,18.5,9.4c0.4,0.3,0.8,0.4,1.2,0.4c0.6,0,1.2-0.3,1.6-0.8
				c0.7-0.9,0.5-2.1-0.4-2.8c-5.8-4.4-12.5-7.7-19.7-10c-1.1-0.3-2.2,0.3-2.5,1.3C-470.7,342.1-470.1,343.2-469.1,343.5z"/>
		</g>
		<g>
			<path class="st0" d="M-404.6,456.4c-1.1-0.2-2.2,0.4-2.4,1.5c-2.1,9.5-7.8,18.2-16.1,24.7c-0.9,0.7-1,1.9-0.3,2.8
				c0.4,0.5,1,0.8,1.6,0.8c0.4,0,0.9-0.1,1.2-0.4c8.9-7,15.2-16.6,17.5-27C-402.8,457.7-403.5,456.6-404.6,456.4z"/>
		</g>
		<g>
			<path class="st0" d="M-434.2,485.4c0.3,0,0.6-0.1,0.9-0.2c5.8-2.8,10.6-6.8,14-11.8c0.6-0.9,0.4-2.2-0.5-2.8
				c-0.9-0.6-2.2-0.4-2.8,0.5c-3,4.4-7.3,8-12.4,10.4c-1,0.5-1.4,1.7-0.9,2.7C-435.7,484.9-435,485.4-434.2,485.4z"/>
		</g>
		<g>
			<path class="st0" d="M-465.1,337.5l5.5,2.5c0.3,0.1,0.6,0.2,0.8,0.2c0.8,0,1.5-0.4,1.8-1.2c0.5-1,0-2.2-1-2.7l-5.5-2.5
				c-1-0.5-2.2,0-2.7,1C-466.6,335.8-466.1,337-465.1,337.5z"/>
		</g>
		<g>
			<path class="st0" d="M-462.6,333.2c0.4,0.3,0.9,0.5,1.3,0.5c0.6,0,1.1-0.2,1.5-0.7c0.7-0.8,0.7-2.1-0.2-2.8l-0.7-0.6
				c-0.8-0.7-2.1-0.7-2.8,0.2c-0.7,0.8-0.7,2.1,0.2,2.8L-462.6,333.2z"/>
		</g>
		<g>
			<path class="st0" d="M-453.1,376.7c-1.1-0.3-2.2,0.3-2.5,1.4c-0.3,1.1,0.3,2.2,1.4,2.5c7.8,2.1,15.3,5.2,22.2,9
				c3,1.6,5.9,3.6,8.1,5.1c0.4,0.2,0.8,0.4,1.1,0.4c0.6,0,1.3-0.3,1.6-0.9c0.6-0.9,0.4-2.2-0.5-2.8c-2.3-1.6-5.3-3.7-8.5-5.4
				C-437.2,382.1-445,378.9-453.1,376.7z"/>
		</g>
		<g>
			<path class="st0" d="M-477,497.8c-5.6-1.1-10.8-3.4-15.1-6.8c-0.9-0.7-2.1-0.5-2.8,0.3c-0.7,0.9-0.5,2.1,0.3,2.8
				c4.8,3.8,10.6,6.4,16.8,7.6c0.1,0,0.2,0,0.4,0c0.9,0,1.8-0.7,2-1.6C-475.2,499.1-475.9,498-477,497.8z"/>
		</g>
		<g>
			<path class="st0" d="M-455.4,496c-14.5-11.5-22.9-30.8-21.4-49.2c0.1-1.1-0.7-2.1-1.8-2.2c-1.1-0.1-2.1,0.7-2.2,1.8
				c-1.6,20,7.2,40.2,22.9,52.7c0.4,0.3,0.8,0.4,1.2,0.4c0.6,0,1.2-0.3,1.6-0.8C-454.4,498-454.5,496.7-455.4,496z"/>
		</g>
		<g>
			<path class="st0" d="M-456.6,413.5c-0.2-1.1-1.3-1.8-2.4-1.5c-11.9,2.7-22.3,11-27.6,22c-5.4,11-5.5,24.2-0.3,35.3
				c0.3,0.7,1.1,1.2,1.8,1.2c0.3,0,0.6-0.1,0.9-0.2c1-0.5,1.4-1.7,1-2.7c-4.6-9.9-4.5-22,0.2-31.8c4.8-9.8,14.3-17.4,24.9-19.8
				C-457,415.7-456.4,414.6-456.6,413.5z"/>
		</g>
		<g>
			<path class="st0" d="M-462.8,498.2c-8-6.1-14.4-14.2-18.3-23.5c-0.4-1-1.6-1.5-2.6-1.1c-1,0.4-1.5,1.6-1.1,2.6
				c4.2,9.9,11,18.6,19.6,25.1c0.4,0.3,0.8,0.4,1.2,0.4c0.6,0,1.2-0.3,1.6-0.8C-461.8,500.2-461.9,498.9-462.8,498.2z"/>
		</g>
		<g>
			<path class="st0" d="M-482.2,494c0.4,0.4,0.9,0.5,1.4,0.5c0.5,0,1.1-0.2,1.5-0.6c0.8-0.8,0.7-2.1-0.1-2.8
				c-10.2-9.6-16-23.7-15.4-37.7c0-1.1-0.8-2-1.9-2.1c-1.1,0-2,0.8-2.1,1.9C-499.5,468.4-493.2,483.7-482.2,494z"/>
		</g>
		<g>
			<path class="st0" d="M-473.7,408.4c-1.2,0.9-2.4,1.8-3.7,2.7c-5.2,3.8-10.5,7.7-14.1,13.5c-4,6.5-6.3,13.8-6.7,21
				c-0.1,1.1,0.8,2.1,1.9,2.1c0,0,0.1,0,0.1,0c1.1,0,1.9-0.8,2-1.9c0.4-6.6,2.5-13.2,6.1-19.2c3.1-5.1,7.9-8.6,13-12.3
				c1.3-0.9,2.5-1.8,3.7-2.8c0.9-0.7,1-1.9,0.4-2.8C-471.6,407.9-472.8,407.7-473.7,408.4z"/>
		</g>
		<g>
			<path class="st0" d="M-493,488.7c0.9-0.6,1.2-1.9,0.6-2.8l-5.7-8.6c-0.6-0.9-1.9-1.2-2.8-0.6c-0.9,0.6-1.2,1.9-0.6,2.8l5.7,8.6
				c0.4,0.6,1,0.9,1.7,0.9C-493.7,489-493.4,488.9-493,488.7z"/>
		</g>
		<g>
			<path class="st0" d="M-464.7,463.1c-1.9-6.5-5-22.6,7-31.7c4.2-3.2,9.5-4.7,14.7-4.3c0.5,0,0.9,0.2,1.4,0.3
				c0.4,0.1,0.9,0.3,1.5,0.4c0.2,0,0.5,0,0.7,0c0.6,1.3,1.2,2.6,1.6,4c-3.3-1.1-6.9-1-10.1,0.3c-1,0.4-1.5,1.6-1,2.6s1.6,1.5,2.6,1
				c2.9-1.3,6.3-1,9,0.6c0,0,0.1,0,0.1,0.1c0,2.5-0.3,4.9-0.9,7.2c-2.1,3.8-6.4,6.5-10.7,6.6c-4.4,0.1-8.8-2.3-11.1-6
				c-0.6-0.9-1.8-1.3-2.8-0.7s-1.3,1.8-0.7,2.8c3,4.9,8.5,8,14.2,8c0.1,0,0.3,0,0.4,0c2.1-0.1,4.2-0.5,6.1-1.4
				c-1.1,1.3-2.3,2.5-3.6,3.6c-0.9,0.7-1,1.9-0.3,2.8c0.4,0.5,1,0.8,1.6,0.8c0.4,0,0.9-0.1,1.2-0.4c6.8-5.4,10.6-13.6,10.6-23.2
				c0-9.7-6.7-17.5-12.3-22.5c-8.4-7.3-19.7-12.4-31.1-13.9c-12.8-1.7-24.4,1.2-32.7,8.3c-0.8,0.7-0.9,2-0.2,2.8
				c0.7,0.8,2,1,2.8,0.2c7.5-6.3,18-8.9,29.6-7.4c10.6,1.4,21.2,6.2,29,13c1.7,1.5,3.8,3.6,5.8,6.1c-0.1,0-0.2,0-0.3,0
				c-6.2-0.5-12.5,1.4-17.5,5.1c-9.9,7.5-12.9,20.6-8.5,36c4,13.7,12.2,26.4,23.1,35.6c0.4,0.3,0.8,0.5,1.3,0.5
				c0.6,0,1.1-0.2,1.5-0.7c0.7-0.8,0.6-2.1-0.2-2.8C-453.1,488-460.9,476-464.7,463.1z"/>
		</g>
		<g>
			<path class="st0" d="M-454.5,474.8c0.1,0,0.1,0,0.2,0c12.9-1.4,24.9-10.4,29.7-22.5s2.4-26.9-6-36.8c-0.7-0.8-2-1-2.8-0.2
				c-0.8,0.7-1,2-0.2,2.8c7.5,8.8,9.6,22,5.3,32.7c-4.3,10.7-14.9,18.8-26.4,20c-1.1,0.1-1.9,1.1-1.8,2.2
				C-456.3,474-455.5,474.8-454.5,474.8z"/>
		</g>
		<g>
			<path class="st0" d="M-422.6,465c0.5-1,0.2-2.2-0.8-2.7c-1-0.5-2.2-0.2-2.7,0.8c-4.7,8.6-12.8,15.4-22.1,18.5
				c-1.1,0.4-1.6,1.5-1.3,2.5c0.3,0.8,1.1,1.4,1.9,1.4c0.2,0,0.4,0,0.6-0.1C-436.7,481.9-427.8,474.5-422.6,465z"/>
		</g>
		<g>
			<path class="st0" d="M-417.6,453.6c5-10,4.8-22.4-0.5-32.3c-0.5-1-1.7-1.3-2.7-0.8c-1,0.5-1.3,1.7-0.8,2.7
				c4.7,8.7,4.9,19.7,0.5,28.6c-0.5,1-0.1,2.2,0.9,2.7c0.3,0.1,0.6,0.2,0.9,0.2C-418.7,454.8-418,454.3-417.6,453.6z"/>
		</g>
		<g>
			<path class="st0" d="M-440.4,485.3l-6.2,1.6c-1.1,0.3-1.7,1.4-1.5,2.4c0.2,0.9,1,1.5,1.9,1.5c0.2,0,0.3,0,0.5-0.1l6.2-1.6
				c1.1-0.3,1.7-1.4,1.5-2.4C-438.3,485.7-439.3,485.1-440.4,485.3z"/>
		</g>
		<g>
			<path class="st0" d="M-428.5,486.6c-3.4,2.9-7.5,4.9-11.9,5.8c-1.1,0.2-1.8,1.3-1.6,2.4c0.2,0.9,1,1.6,2,1.6c0.1,0,0.3,0,0.4,0
				c5-1,9.8-3.4,13.7-6.7c0.8-0.7,0.9-2,0.2-2.8C-426.4,486-427.7,485.9-428.5,486.6z"/>
		</g>
		<g>
			<path class="st0" d="M-404,437.5c0.1,1,1,1.8,2,1.8c0.1,0,0.1,0,0.2,0c1.1-0.1,1.9-1.1,1.8-2.2c-0.5-4.1-2.2-8.1-4.9-11.2
				c-0.7-0.8-2-0.9-2.8-0.2c-0.8,0.7-0.9,2-0.2,2.8C-405.8,431-404.4,434.2-404,437.5z"/>
		</g>
		<g>
			<path class="st0" d="M-417.9,467.4c0.4,0.3,0.8,0.4,1.2,0.4c0.6,0,1.2-0.3,1.6-0.8c3.7-5.2,6.1-11.3,6.8-17.6
				c0.1-1.1-0.7-2.1-1.8-2.2c-1.1-0.1-2.1,0.7-2.2,1.8c-0.6,5.7-2.7,11.1-6,15.7C-419,465.5-418.8,466.8-417.9,467.4z"/>
		</g>
		<g>
			<path class="st0" d="M-411.1,431.7c-1.1,0.3-1.6,1.5-1.3,2.5c0.9,2.7,1.1,5.7,0.8,8.5c-0.1,1.1,0.6,2.1,1.7,2.3
				c0.1,0,0.2,0,0.3,0c1,0,1.9-0.7,2-1.7c0.5-3.4,0.1-7-0.9-10.3C-408.9,432-410,431.4-411.1,431.7z"/>
		</g>
		<g>
			<path class="st0" d="M-464.9,421.8c-5.9,3.3-10.5,8.6-13.1,14.8c-0.4,1,0.1,2.2,1.1,2.6c0.3,0.1,0.5,0.2,0.8,0.2
				c0.8,0,1.5-0.5,1.9-1.2c2.2-5.4,6.3-10,11.3-12.9c1-0.5,1.3-1.8,0.8-2.7C-462.7,421.5-463.9,421.2-464.9,421.8z"/>
		</g>
		<g>
			<path class="st0" d="M-453.5,402.7c-0.4,1,0.1,2.2,1.1,2.6c5.6,2.3,10.8,5.5,15.4,9.4c0.4,0.3,0.8,0.5,1.3,0.5
				c0.6,0,1.1-0.2,1.5-0.7c0.7-0.8,0.6-2.1-0.2-2.8c-4.9-4.2-10.5-7.5-16.4-10C-451.9,401.2-453,401.6-453.5,402.7z"/>
		</g>
		<g>
			<path class="st0" d="M-424.1,418.8c0.4,0.5,1,0.8,1.6,0.8c0.4,0,0.8-0.1,1.2-0.4c0.9-0.7,1.1-1.9,0.4-2.8
				c-3.2-4.3-7.3-8-11.9-10.7c-1-0.6-2.2-0.3-2.8,0.7c-0.6,1-0.3,2.2,0.7,2.8C-430.7,411.6-427,415-424.1,418.8z"/>
		</g>
		<g>
			<path class="st0" d="M-496.6,391.3c0.3,0,0.5,0,0.8-0.2c7-2.9,14.6-3.8,22.1-2.6c1.1,0.2,2.1-0.6,2.3-1.7
				c0.2-1.1-0.6-2.1-1.7-2.3c-8.2-1.3-16.6-0.3-24.3,2.9c-1,0.4-1.5,1.6-1.1,2.6C-498.1,390.8-497.4,391.3-496.6,391.3z"/>
		</g>
		<g>
			<path class="st0" d="M-499.5,400.1c0.3,0,0.7-0.1,1-0.3c5.4-3.2,11.8-4.6,18-3.9c1.1,0.1,2.1-0.7,2.2-1.8
				c0.1-1.1-0.7-2.1-1.8-2.2c-7.1-0.8-14.4,0.8-20.5,4.4c-1,0.6-1.3,1.8-0.7,2.8C-500.9,399.7-500.2,400.1-499.5,400.1z"/>
		</g>
		<g>
			<path class="st0" d="M-422.4,399.3c-0.7,0.9-0.5,2.1,0.4,2.8l5.4,4.2c0.4,0.3,0.8,0.4,1.2,0.4c0.6,0,1.2-0.3,1.6-0.8
				c0.7-0.9,0.5-2.1-0.4-2.8l-5.4-4.2C-420.5,398.3-421.7,398.4-422.4,399.3z"/>
		</g>
		<g>
			<path class="st0" d="M-479.4,368.2l23.2,5.4c0.2,0,0.3,0.1,0.5,0.1c0.9,0,1.7-0.6,2-1.6c0.3-1.1-0.4-2.2-1.5-2.4l-23.2-5.4
				c-1.1-0.3-2.2,0.4-2.4,1.5C-481.2,366.8-480.5,367.9-479.4,368.2z"/>
		</g>
		<g>
			<path class="st0" d="M-451.3,373.2c-0.3,1.1,0.4,2.2,1.4,2.4c6,1.5,11.7,3.9,17,7.1c0.3,0.2,0.7,0.3,1,0.3c0.7,0,1.4-0.4,1.7-1
				c0.6-1,0.3-2.2-0.7-2.8c-5.6-3.4-11.7-5.9-18.1-7.5C-449.9,371.5-451,372.2-451.3,373.2z"/>
		</g>
		<g>
			<path class="st0" d="M-449.1,444.4c2.6,0,5.1-0.8,7.2-2.3c0.9-0.7,1.1-1.9,0.4-2.8c-0.7-0.9-1.9-1.1-2.8-0.4
				c-3.2,2.4-8.3,1.9-10.9-1.1c-0.7-0.8-2-0.9-2.8-0.2c-0.8,0.7-0.9,2-0.2,2.8C-456,443-452.5,444.4-449.1,444.4z"/>
		</g>
		<g>
			<path class="st0" d="M-448.3,460.4c-0.5-1-1.7-1.4-2.7-0.8c-2.9,1.5-6.3,2.1-9.6,1.6c-1.1-0.2-2.1,0.6-2.3,1.7
				c-0.2,1.1,0.6,2.1,1.7,2.3c1,0.2,2,0.2,3,0.2c3.1,0,6.3-0.8,9.1-2.2C-448.2,462.5-447.8,461.3-448.3,460.4z"/>
		</g>
		<g>
			<path class="st0" d="M-476.2,371.7c-1.1-0.1-2.1,0.7-2.2,1.8c-0.1,1.1,0.7,2.1,1.8,2.2c5,0.4,10.1,1.4,14.9,2.9
				c0.2,0.1,0.4,0.1,0.6,0.1c0.9,0,1.6-0.5,1.9-1.4c0.3-1.1-0.3-2.2-1.3-2.5C-465.6,373.2-470.9,372.2-476.2,371.7z"/>
		</g>
	</g>
	<g>
		<path class="st1" d="M-359.3,413.9c-6.8,0-12.4-1.3-16.9-5.9l7-7c2.3,2.3,6.4,3.1,10,3.1c4.3,0,6.4-1.4,6.4-4
			c0-1.1-0.3-1.9-0.9-2.6c-0.6-0.6-1.5-1-2.9-1.2l-5.4-0.8c-3.9-0.6-7-1.9-9-3.9c-2.1-2.1-3.1-5.1-3.1-9c0-8.1,6.1-14.1,16.3-14.1
			c6.4,0,11.2,1.5,15,5.3l-6.9,6.9c-2.8-2.8-6.5-2.6-8.5-2.6c-3.8,0-5.4,2.2-5.4,4.1c0,0.6,0.2,1.4,0.9,2.1c0.6,0.6,1.5,1.1,3.1,1.3
			l5.4,0.8c4,0.6,6.9,1.8,8.8,3.7c2.4,2.3,3.3,5.6,3.3,9.8C-342,409-349.9,413.9-359.3,413.9z"/>
		<path class="st1" d="M-306.8,408.9c-3.3,3.3-7,5-12.5,5c-5.5,0-9.2-1.8-12.5-5c-4.7-4.7-4.5-11-4.5-17.7c0-6.7-0.2-13,4.5-17.7
			c3.3-3.3,7-5,12.5-5c5.5,0,9.2,1.8,12.5,5c4.7,4.7,4.5,11,4.5,17.7C-302.3,397.9-302.1,404.2-306.8,408.9z M-314.9,380.3
			c-0.8-1.1-2.4-1.9-4.4-1.9c-2,0-3.6,0.9-4.4,1.9c-1,1.3-1.6,2.8-1.6,11c0,8.1,0.6,9.6,1.6,10.9c0.8,1.1,2.4,2,4.4,2
			c2,0,3.6-0.9,4.4-2c1-1.3,1.6-2.8,1.6-10.9C-313.3,383.1-313.9,381.6-314.9,380.3z"/>
		<path class="st1" d="M-272.1,413.5l-7.9-16.6h-3.7v16.6h-11v-44.6h17.7c9.9,0,15.2,7,15.2,14.4c0,6.1-3.8,9.9-7.3,11.7l9.7,18.6
			H-272.1z M-277.5,378.8h-6.2v9h6.2c3,0,4.8-2.2,4.8-4.5C-272.8,381-274.5,378.8-277.5,378.8z"/>
		<path class="st1" d="M-234.4,413.5h-19.4v-44.6h18.5c9.3,0,14.2,5.2,14.2,12.9c0,5.1-3.5,7.9-4.9,8.8c1.8,1.1,5.5,3.4,5.5,9.7
			C-220.5,408.9-226.5,413.5-234.4,413.5z M-236,378.8h-6.8v7.3h6.8c3,0,3.9-1.9,3.9-3.6C-232.1,380.6-233,378.8-236,378.8z
			 M-235.5,395.9h-7.4v7.8h7.4c3,0,4-2.1,4-3.9C-231.5,397.9-232.5,395.9-235.5,395.9z"/>
		<path class="st1" d="M-184.9,408.9c-3.3,3.3-7,5-12.5,5s-9.2-1.8-12.5-5c-4.7-4.7-4.5-11-4.5-17.7c0-6.7-0.2-13,4.5-17.7
			c3.3-3.3,7-5,12.5-5s9.2,1.8,12.5,5c4.7,4.7,4.5,11,4.5,17.7C-180.4,397.9-180.2,404.2-184.9,408.9z M-193,380.3
			c-0.8-1.1-2.4-1.9-4.4-1.9c-2,0-3.6,0.9-4.4,1.9c-1,1.3-1.6,2.8-1.6,11c0,8.1,0.6,9.6,1.6,10.9c0.8,1.1,2.4,2,4.4,2
			c2,0,3.6-0.9,4.4-2c1-1.3,1.6-2.8,1.6-10.9C-191.4,383.1-192,381.6-193,380.3z"/>
		<path class="st1" d="M-359.3,467c-6.8,0-12.4-1.3-16.9-5.9l7-7c2.3,2.3,6.4,3.1,10,3.1c4.3,0,6.4-1.4,6.4-4c0-1.1-0.3-1.9-0.9-2.6
			c-0.6-0.6-1.5-1-2.9-1.2l-5.4-0.8c-3.9-0.6-7-1.9-9-3.9c-2.1-2.1-3.1-5.1-3.1-9c0-8.1,6.1-14.1,16.3-14.1c6.4,0,11.2,1.5,15,5.3
			l-6.9,6.9c-2.8-2.8-6.5-2.6-8.5-2.6c-3.8,0-5.4,2.2-5.4,4.1c0,0.6,0.2,1.4,0.9,2.1c0.6,0.6,1.5,1.1,3.1,1.3l5.4,0.8
			c4,0.6,6.9,1.8,8.8,3.7c2.4,2.3,3.3,5.6,3.3,9.8C-342,462-349.9,467-359.3,467z"/>
		<path class="st1" d="M-306.8,461.9c-3.3,3.3-7,5-12.5,5c-5.5,0-9.2-1.8-12.5-5c-4.7-4.7-4.5-11-4.5-17.7c0-6.7-0.2-13,4.5-17.7
			c3.3-3.3,7-5,12.5-5c5.5,0,9.2,1.8,12.5,5c4.7,4.7,4.5,11,4.5,17.7C-302.3,451-302.1,457.2-306.8,461.9z M-314.9,433.3
			c-0.8-1.1-2.4-1.9-4.4-1.9c-2,0-3.6,0.9-4.4,1.9c-1,1.3-1.6,2.8-1.6,11c0,8.1,0.6,9.6,1.6,10.9c0.8,1.1,2.4,2,4.4,2
			c2,0,3.6-0.9,4.4-2c1-1.3,1.6-2.8,1.6-10.9C-313.3,436.1-313.9,434.6-314.9,433.3z"/>
		<path class="st1" d="M-294.7,466.6V422h11v34.8h18.7v9.8H-294.7z"/>
		<path class="st1" d="M-258.6,466.6V422h11v44.6H-258.6z"/>
		<path class="st1" d="M-210,462.2c-3.1,3.1-7.4,4.4-12,4.4h-16.5V422h16.5c4.6,0,9,1.3,12,4.4c5.2,5.2,4.6,10.9,4.6,17.9
			C-205.4,451.3-204.8,457-210,462.2z M-217.6,434.2c-1-1.5-2.5-2.5-5.3-2.5h-4.8v25.1h4.8c2.8,0,4.3-1,5.3-2.5
			c0.9-1.3,1.2-2.4,1.2-10C-216.4,436.7-216.7,435.5-217.6,434.2z"/>
		<path class="st1" d="M-173.5,466.6l-2.1-6.6h-13.7l-2.2,6.6H-203l16.2-44.6h8.5l16.2,44.6H-173.5z M-182.2,438.9l-4,11.9h7.8
			L-182.2,438.9z"/>
		<path class="st1" d="M-135,466.6l-7.9-16.6h-3.7v16.6h-11V422h17.7c9.9,0,15.2,7,15.2,14.4c0,6.1-3.8,9.9-7.3,11.7l9.7,18.6H-135z
			 M-140.3,431.8h-6.2v9h6.2c3,0,4.8-2.2,4.8-4.5C-135.6,434-137.3,431.8-140.3,431.8z"/>
		<path class="st1" d="M-116.7,466.6V422h11v44.6H-116.7z"/>
		<path class="st1" d="M-68.7,461.9c-3.3,3.3-7,5-12.5,5s-9.2-1.8-12.5-5c-4.7-4.7-4.5-11-4.5-17.7c0-6.7-0.2-13,4.5-17.7
			c3.3-3.3,7-5,12.5-5s9.2,1.8,12.5,5c4.7,4.7,4.5,11,4.5,17.7C-64.1,451-64,457.2-68.7,461.9z M-76.7,433.3
			c-0.8-1.1-2.4-1.9-4.4-1.9s-3.6,0.9-4.4,1.9c-1,1.3-1.6,2.8-1.6,11c0,8.1,0.6,9.6,1.6,10.9c0.8,1.1,2.4,2,4.4,2s3.6-0.9,4.4-2
			c1-1.3,1.6-2.8,1.6-10.9C-75.1,436.1-75.7,434.6-76.7,433.3z"/>
	</g>
	<g>
		<path class="st1" d="M-369,499.5h-1.2v-4.8h-4.8v-1.2h4.8v-4.8h1.2v4.8h4.8v1.2h-4.8V499.5z"/>
		<path class="st1" d="M-342.1,499.8c-1.2,0.9-2.7,1.4-4.2,1.4c-1.8,0-3.5-0.7-4.7-1.9c-1.7-1.7-1.7-3.4-1.7-7.7
			c0-4.3,0-5.9,1.7-7.7c1.2-1.2,2.9-1.9,4.7-1.9c1.8,0,3.5,0.7,4.7,1.9c1.7,1.7,1.7,3.4,1.7,7.7c0,3.9,0,5.7-1.4,7.2l2.2,2.2l-1,1
			L-342.1,499.8z M-342.7,484.8c-1-1-2.2-1.5-3.6-1.5c-1.4,0-2.6,0.5-3.6,1.5c-1.4,1.4-1.5,2.8-1.5,6.9s0.1,5.5,1.5,6.9
			c1,1,2.2,1.5,3.6,1.5c1.2,0,2.3-0.4,3.2-1.1l-2.7-2.7l1-1l2.6,2.6c0.8-1.2,0.9-2.8,0.9-6.2C-341.2,487.6-341.3,486.1-342.7,484.8z
			"/>
		<path class="st1" d="M-327.9,501.2c-3.8,0-6.5-2.6-6.5-6.3v-12.8h1.4v12.6c0,3.1,2,5.2,5,5.2c3,0,5-2.1,5-5.2v-12.6h1.4v12.8
			C-321.4,498.6-324.1,501.2-327.9,501.2z"/>
		<path class="st1" d="M-315.2,482.2h11.5v1.3h-10v7.5h8.5v1.3h-8.5v7.6h10v1.3h-11.5V482.2z"/>
		<path class="st1" d="M-285.2,501.2c-3.8,0-6.5-2.6-6.5-6.3v-12.8h1.4v12.6c0,3.1,2,5.2,5,5.2s5-2.1,5-5.2v-12.6h1.4v12.8
			C-278.7,498.6-281.4,501.2-285.2,501.2z"/>
		<path class="st1" d="M-271.1,484.7v16.4h-1.4v-18.9h1.4l10.9,16.4v-16.4h1.4v18.9h-1.4L-271.1,484.7z"/>
		<path class="st1" d="M-241.4,501.1l-6.2-18.9h1.5l5.3,16.4l5.3-16.4h1.5l-6.2,18.9H-241.4z"/>
		<path class="st1" d="M-221.7,496.5h-8.8l-1.6,4.6h-1.5l6.9-18.9h1.3l6.9,18.9h-1.5L-221.7,496.5z M-230,495.2h7.9l-4-11.1
			L-230,495.2z"/>
		<path class="st1" d="M-209.8,501.2c-2.8,0-4.6-0.8-6.3-2.5l1-1c1.7,1.7,3.1,2.2,5.4,2.2c3,0,4.9-1.4,4.9-3.9c0-1.1-0.3-2-1-2.7
			c-0.7-0.6-1.2-0.8-2.7-1l-2.2-0.3c-1.4-0.2-2.5-0.7-3.4-1.4c-1-0.8-1.5-2-1.5-3.5c0-3.2,2.2-5.2,5.9-5.2c2.3,0,3.8,0.6,5.4,2
			l-0.9,0.9c-1.1-1.1-2.4-1.8-4.6-1.8c-2.8,0-4.4,1.5-4.4,3.9c0,1.1,0.3,1.9,1,2.5c0.7,0.6,1.8,1,2.8,1.2l2,0.3
			c1.8,0.2,2.6,0.6,3.4,1.2c1,0.8,1.6,2.1,1.6,3.7C-203.5,499.2-205.9,501.2-209.8,501.2z"/>
		<path class="st1" d="M-187.9,499.3c-1.2,1.2-2.9,1.9-4.7,1.9c-1.8,0-3.5-0.7-4.7-1.9c-1.7-1.7-1.8-3.4-1.8-7.7
			c0-4.3,0-5.9,1.8-7.7c1.2-1.2,2.9-1.9,4.7-1.9c1.8,0,3.5,0.7,4.7,1.9c1.7,1.7,1.8,3.4,1.8,7.7
			C-186.2,495.9-186.2,497.6-187.9,499.3z M-189.1,484.8c-1-1-2.2-1.5-3.6-1.5c-1.4,0-2.6,0.5-3.6,1.5c-1.4,1.4-1.5,2.8-1.5,6.9
			s0.1,5.5,1.5,6.9c1,1,2.2,1.5,3.6,1.5c1.4,0,2.6-0.5,3.6-1.5c1.4-1.4,1.5-2.8,1.5-6.9S-187.7,486.1-189.1,484.8z"/>
		<path class="st1" d="M-162.1,499.3c-1.1,1.1-2.7,1.7-4.7,1.7h-6.3v-18.9h6.3c2,0,3.6,0.6,4.7,1.7c1.9,1.9,1.8,4.9,1.8,7.5
			C-160.2,493.9-160.2,497.4-162.1,499.3z M-163.1,484.9c-1.1-1.1-2.5-1.5-4.1-1.5h-4.6v16.3h4.6c1.5,0,3-0.3,4.1-1.5
			c1.5-1.6,1.4-4.9,1.4-7C-161.7,489.2-161.6,486.5-163.1,484.9z"/>
		<path class="st1" d="M-154.5,482.2h11.5v1.3h-10v7.5h8.5v1.3h-8.5v7.6h10v1.3h-11.5V482.2z"/>
		<path class="st1" d="M-121.2,496.5h-8.8l-1.6,4.6h-1.5l6.9-18.9h1.3l6.9,18.9h-1.5L-121.2,496.5z M-129.6,495.2h7.9l-4-11.1
			L-129.6,495.2z"/>
		<path class="st1" d="M-103.7,499.1c-1.2,1.4-3,2.2-5,2.2c-1.8,0-3.5-0.7-4.7-1.9c-1.7-1.7-1.7-3.4-1.7-7.7c0-4.3,0-5.9,1.7-7.7
			c1.2-1.2,2.9-1.9,4.7-1.9c3.3,0,5.9,2.2,6.4,5.5h-1.4c-0.6-2.6-2.5-4.2-5-4.2c-1.4,0-2.6,0.5-3.6,1.5c-1.4,1.4-1.5,2.8-1.5,6.9
			s0.1,5.5,1.5,6.9c1,1,2.2,1.5,3.6,1.5c1.5,0,2.9-0.6,3.9-1.8c0.8-1,1.1-2.1,1.1-3.7v-1.7h-5.1v-1.3h6.5v3.1
			C-102.2,496.5-102.6,497.9-103.7,499.1z"/>
		<path class="st1" d="M-90.3,501.2c-3.8,0-6.5-2.6-6.5-6.3v-12.8h1.4v12.6c0,3.1,2,5.2,5,5.2c3,0,5-2.1,5-5.2v-12.6h1.4v12.8
			C-83.8,498.6-86.5,501.2-90.3,501.2z"/>
		<path class="st1" d="M-68.2,496.5H-77l-1.6,4.6h-1.5l6.9-18.9h1.3l6.9,18.9h-1.5L-68.2,496.5z M-76.6,495.2h7.9l-4-11.1
			L-76.6,495.2z"/>
	</g>
</g>
</svg>
