<?xml version="1.0" encoding="utf-8"?>
<!-- Generator: Adobe Illustrator 22.0.1, SVG Export Plug-In . SVG Version: 6.00 Build 0)  -->
<svg version="1.1" id="Capa_1" xmlns="http://www.w3.org/2000/svg" xmlns:xlink="http://www.w3.org/1999/xlink" x="0px" y="0px"
	 viewBox="0 0 595.3 841.9" style="enable-background:new 0 0 595.3 841.9;" xml:space="preserve">
<style type="text/css">
	.st0{fill:#010202;}
	.st1{fill:#86C8E2;}
	.st2{fill:#FFFFFF;}
</style>
<rect x="-9" y="-13" class="st0" width="613" height="860"/>
<g>
	<g>
		<g>
			<path class="st1" d="M96.4,93.9c21.1,0,42.7,6,60.9,16.8c0.3,0.2,0.7,0.3,1,0.3c0.7,0,1.4-0.4,1.7-1c0.6-1,0.3-2.2-0.7-2.8
				c-18.8-11.2-41.1-17.3-62.9-17.3c0,0,0,0,0,0c-1.1,0-2,0.9-2,2C94.3,93,95.2,93.9,96.4,93.9z"/>
		</g>
		<g>
			<path class="st1" d="M122.6,105.9c-0.2,1.1,0.6,2.1,1.7,2.3c17.2,2.6,33.9,9.7,46.9,20c0.4,0.3,0.8,0.4,1.2,0.4
				c0.6,0,1.2-0.3,1.6-0.8c0.7-0.9,0.5-2.1-0.3-2.8c-13.5-10.7-30.9-18.1-48.8-20.8C123.8,104,122.8,104.8,122.6,105.9z"/>
		</g>
		<g>
			<path class="st1" d="M101.1,118.3C85,127,73.8,142.1,71,158.5c-0.2,1.1,0.5,2.1,1.6,2.3c0.1,0,0.2,0,0.3,0c1,0,1.8-0.7,2-1.7
				C77.5,143.9,88,130,103,121.8c1-0.5,1.3-1.8,0.8-2.7C103.2,118.1,102,117.8,101.1,118.3z"/>
		</g>
		<g>
			<path class="st1" d="M73.3,134c-0.9-0.6-2.2-0.4-2.8,0.5c-7.3,10.1-11.2,21.7-11.3,33.6c0,1.1,0.9,2,2,2c0,0,0,0,0,0
				c1.1,0,2-0.9,2-2c0.2-10.9,3.9-22.1,10.6-31.3C74.4,135.9,74.2,134.7,73.3,134z"/>
		</g>
		<g>
			<path class="st1" d="M110.9,102.1c-1.1-0.1-2.1,0.7-2.2,1.8c-0.1,1.1,0.7,2.1,1.8,2.2l8.4,0.7c0.1,0,0.1,0,0.2,0
				c1,0,1.9-0.8,2-1.8c0.1-1.1-0.7-2.1-1.8-2.2L110.9,102.1z"/>
		</g>
		<g>
			<path class="st1" d="M106.4,73.5c2.3,0.4,4.5,0.8,6.8,1.3c0.1,0,0.3,0.1,0.4,0.1c0.9,0,1.7-0.6,2-1.6c0.2-1.1-0.4-2.2-1.5-2.4
				c-2.3-0.5-4.7-1-7-1.3c-1.1-0.2-2.1,0.6-2.3,1.7C104.5,72.3,105.3,73.3,106.4,73.5z"/>
		</g>
		<g>
			<path class="st1" d="M131.1,78.4c0.4-1-0.1-2.2-1.1-2.6c-3.6-1.4-7.4-2.7-11.3-3.7c-1.1-0.3-2.2,0.3-2.5,1.4
				c-0.3,1.1,0.3,2.2,1.4,2.5c3.7,1,7.4,2.2,10.9,3.6c0.2,0.1,0.5,0.1,0.7,0.1C130.1,79.6,130.8,79.2,131.1,78.4z"/>
		</g>
		<g>
			<path class="st1" d="M134.1,78.6c-0.5,1,0,2.2,1,2.7c2.2,1,4.3,2,6.4,3c0.3,0.1,0.6,0.2,0.9,0.2c0.7,0,1.4-0.4,1.8-1.1
				c0.5-1,0.1-2.2-0.9-2.7c-2.2-1.1-4.4-2.1-6.6-3.1C135.8,77.1,134.6,77.6,134.1,78.6z"/>
		</g>
		<g>
			<path class="st1" d="M110.2,65.1c8.1,2,16.1,4.7,23.6,8.2c0.3,0.1,0.6,0.2,0.8,0.2c0.8,0,1.5-0.4,1.8-1.2c0.5-1,0-2.2-1-2.7
				c-7.8-3.6-15.9-6.4-24.3-8.5c-1.1-0.3-2.2,0.4-2.4,1.5C108.5,63.8,109.2,64.8,110.2,65.1z"/>
		</g>
		<g>
			<path class="st1" d="M97.6,86.7c0.9,0.1,1.8,0.2,2.6,0.4c0.1,0,0.2,0,0.3,0c1,0,1.8-0.7,2-1.7c0.2-1.1-0.6-2.1-1.7-2.3
				c-0.9-0.1-1.8-0.3-2.8-0.4c-1.1-0.1-2.1,0.6-2.3,1.7C95.8,85.5,96.5,86.5,97.6,86.7z"/>
		</g>
		<g>
			<path class="st1" d="M74.4,133.6c0.5,0,1.1-0.2,1.4-0.6c3.4-3.5,7.8-6.3,12.8-7.9c1.1-0.3,1.6-1.5,1.3-2.5
				c-0.3-1.1-1.5-1.6-2.5-1.3c-5.6,1.8-10.5,4.9-14.4,8.9c-0.8,0.8-0.7,2.1,0.1,2.8C73.4,133.4,73.9,133.6,74.4,133.6z"/>
		</g>
		<g>
			<path class="st1" d="M80.1,158.5c-1.1-0.3-2.2,0.4-2.4,1.5c-2,8-1.4,16.4,1.7,24.1c0.3,0.8,1.1,1.3,1.9,1.3c0.2,0,0.5,0,0.7-0.1
				c1-0.4,1.5-1.6,1.1-2.6c-2.8-7-3.3-14.5-1.6-21.7C81.9,159.8,81.2,158.8,80.1,158.5z"/>
		</g>
		<g>
			<path class="st1" d="M182.7,153.1C182.7,153.1,182.7,153.1,182.7,153.1c-1.1,0-2,0.9-2,2l-0.1,7.2c0,1.1,0.9,2,2,2c0,0,0,0,0,0
				c1.1,0,2-0.9,2-2l0.1-7.2C184.7,154,183.8,153.1,182.7,153.1z"/>
		</g>
		<g>
			<path class="st1" d="M73.4,165.8c0-1.1-0.9-2-2-2c0,0,0,0,0,0c-1.1,0-2,0.9-2,2c0,13.6,5,27.2,13.9,38.3c0.4,0.5,1,0.7,1.6,0.7
				c0.4,0,0.9-0.1,1.3-0.4c0.9-0.7,1-2,0.3-2.8C78,191.2,73.4,178.5,73.4,165.8z"/>
		</g>
		<g>
			<path class="st1" d="M67.8,170.3c0.1-1.1-0.8-2.1-1.9-2.1c-1.1-0.1-2.1,0.8-2.1,1.9c-0.4,6.6,0.9,13.4,3.9,19.5
				c0.3,0.7,1.1,1.1,1.8,1.1c0.3,0,0.6-0.1,0.9-0.2c1-0.5,1.4-1.7,0.9-2.7C68.6,182.3,67.4,176.3,67.8,170.3z"/>
		</g>
		<g>
			<path class="st1" d="M86.4,142.6c-0.8-0.7-2.1-0.6-2.8,0.2c-2.6,3.2-4.2,7.1-4.3,11c0,1.1,0.8,2,1.9,2.1c0,0,0,0,0.1,0
				c1.1,0,2-0.9,2-1.9c0.1-3,1.3-6.1,3.4-8.5C87.3,144.6,87.2,143.3,86.4,142.6z"/>
		</g>
		<g>
			<path class="st1" d="M114.5,55.6c6.8,2.1,13,5.3,18.5,9.4c0.4,0.3,0.8,0.4,1.2,0.4c0.6,0,1.2-0.3,1.6-0.8
				c0.7-0.9,0.5-2.1-0.4-2.8c-5.8-4.4-12.5-7.7-19.7-10c-1.1-0.3-2.2,0.3-2.5,1.3C112.8,54.1,113.4,55.2,114.5,55.6z"/>
		</g>
		<g>
			<path class="st1" d="M179,168.4c-1.1-0.2-2.2,0.4-2.4,1.5c-2.1,9.5-7.8,18.2-16.1,24.7c-0.9,0.7-1,1.9-0.3,2.8
				c0.4,0.5,1,0.8,1.6,0.8c0.4,0,0.9-0.1,1.2-0.4c8.9-7,15.2-16.6,17.5-27C180.8,169.8,180.1,168.7,179,168.4z"/>
		</g>
		<g>
			<path class="st1" d="M149.3,197.4c0.3,0,0.6-0.1,0.9-0.2c5.8-2.8,10.6-6.8,14-11.8c0.6-0.9,0.4-2.2-0.5-2.8
				c-0.9-0.6-2.2-0.4-2.8,0.5c-3,4.4-7.3,8-12.4,10.4c-1,0.5-1.4,1.7-0.9,2.7C147.8,197,148.6,197.4,149.3,197.4z"/>
		</g>
		<g>
			<path class="st1" d="M118.4,49.5L124,52c0.3,0.1,0.6,0.2,0.8,0.2c0.8,0,1.5-0.4,1.8-1.2c0.5-1,0-2.2-1-2.7l-5.5-2.5
				c-1-0.5-2.2,0-2.7,1C117,47.8,117.4,49,118.4,49.5z"/>
		</g>
		<g>
			<path class="st1" d="M120.9,45.2c0.4,0.3,0.9,0.5,1.3,0.5c0.6,0,1.1-0.2,1.5-0.7c0.7-0.8,0.7-2.1-0.2-2.8l-0.7-0.6
				c-0.8-0.7-2.1-0.7-2.8,0.2c-0.7,0.8-0.7,2.1,0.2,2.8L120.9,45.2z"/>
		</g>
		<g>
			<path class="st1" d="M130.5,88.7c-1.1-0.3-2.2,0.3-2.5,1.4c-0.3,1.1,0.3,2.2,1.4,2.5c7.8,2.1,15.3,5.2,22.2,9
				c3,1.6,5.9,3.6,8.1,5.1c0.4,0.2,0.8,0.4,1.1,0.4c0.6,0,1.3-0.3,1.6-0.9c0.6-0.9,0.4-2.2-0.5-2.8c-2.3-1.6-5.3-3.7-8.5-5.4
				C146.4,94.1,138.6,91,130.5,88.7z"/>
		</g>
		<g>
			<path class="st1" d="M106.6,209.9c-5.6-1.1-10.8-3.4-15.1-6.8c-0.9-0.7-2.1-0.5-2.8,0.3c-0.7,0.9-0.5,2.1,0.3,2.8
				c4.8,3.8,10.6,6.4,16.8,7.6c0.1,0,0.2,0,0.4,0c0.9,0,1.8-0.7,2-1.6C108.4,211.1,107.7,210.1,106.6,209.9z"/>
		</g>
		<g>
			<path class="st1" d="M128.1,208.1c-14.5-11.5-22.9-30.8-21.4-49.2c0.1-1.1-0.7-2.1-1.8-2.2c-1.1-0.1-2.1,0.7-2.2,1.8
				c-1.6,20,7.2,40.2,22.9,52.7c0.4,0.3,0.8,0.4,1.2,0.4c0.6,0,1.2-0.3,1.6-0.8C129.2,210,129,208.7,128.1,208.1z"/>
		</g>
		<g>
			<path class="st1" d="M126.9,125.5c-0.2-1.1-1.3-1.8-2.4-1.5c-11.9,2.7-22.3,11-27.6,22c-5.4,11-5.5,24.2-0.3,35.3
				c0.3,0.7,1.1,1.2,1.8,1.2c0.3,0,0.6-0.1,0.9-0.2c1-0.5,1.4-1.7,1-2.7c-4.6-9.9-4.5-22,0.2-31.8s14.3-17.4,24.9-19.8
				C126.5,127.7,127.2,126.6,126.9,125.5z"/>
		</g>
		<g>
			<path class="st1" d="M120.7,210.3c-8-6.1-14.4-14.2-18.3-23.5c-0.4-1-1.6-1.5-2.6-1.1c-1,0.4-1.5,1.6-1.1,2.6
				c4.2,9.9,11,18.6,19.6,25.1c0.4,0.3,0.8,0.4,1.2,0.4c0.6,0,1.2-0.3,1.6-0.8C121.8,212.2,121.6,210.9,120.7,210.3z"/>
		</g>
		<g>
			<path class="st1" d="M101.4,206.1c0.4,0.4,0.9,0.5,1.4,0.5c0.5,0,1.1-0.2,1.5-0.6c0.8-0.8,0.7-2.1-0.1-2.8
				c-10.2-9.6-16-23.7-15.4-37.7c0-1.1-0.8-2-1.9-2.1c-1.1,0-2,0.8-2.1,1.9C84.1,180.4,90.3,195.7,101.4,206.1z"/>
		</g>
		<g>
			<path class="st1" d="M109.9,120.4c-1.2,0.9-2.4,1.8-3.7,2.7c-5.2,3.8-10.5,7.7-14.1,13.5c-4,6.5-6.3,13.8-6.7,21
				c-0.1,1.1,0.8,2.1,1.9,2.1c0,0,0.1,0,0.1,0c1.1,0,1.9-0.8,2-1.9c0.4-6.6,2.5-13.2,6.1-19.2c3.1-5.1,7.9-8.6,13-12.3
				c1.3-0.9,2.5-1.8,3.7-2.8c0.9-0.7,1-1.9,0.4-2.8C112,119.9,110.7,119.7,109.9,120.4z"/>
		</g>
		<g>
			<path class="st1" d="M90.5,200.8c0.9-0.6,1.2-1.9,0.6-2.8l-5.7-8.6c-0.6-0.9-1.9-1.2-2.8-0.6c-0.9,0.6-1.2,1.9-0.6,2.8l5.7,8.6
				c0.4,0.6,1,0.9,1.7,0.9C89.8,201.1,90.2,201,90.5,200.8z"/>
		</g>
		<g>
			<path class="st1" d="M118.9,175.1c-1.9-6.5-5-22.6,7-31.7c4.2-3.2,9.5-4.7,14.7-4.3c0.5,0,0.9,0.2,1.4,0.3
				c0.4,0.1,0.9,0.3,1.5,0.4c0.2,0,0.5,0,0.7,0c0.6,1.3,1.2,2.6,1.6,4c-3.3-1.1-6.9-1-10.1,0.3c-1,0.4-1.5,1.6-1,2.6s1.6,1.5,2.6,1
				c2.9-1.3,6.3-1,9,0.6c0,0,0.1,0,0.1,0.1c0,2.5-0.3,4.9-0.9,7.2c-2.1,3.8-6.4,6.5-10.7,6.6c-4.4,0.1-8.8-2.3-11.1-6
				c-0.6-0.9-1.8-1.3-2.8-0.7s-1.3,1.8-0.7,2.8c3,4.9,8.5,8,14.2,8c0.1,0,0.3,0,0.4,0c2.1-0.1,4.2-0.5,6.1-1.4
				c-1.1,1.3-2.3,2.5-3.6,3.6c-0.9,0.7-1,1.9-0.3,2.8c0.4,0.5,1,0.8,1.6,0.8c0.4,0,0.9-0.1,1.2-0.4c6.8-5.4,10.6-13.6,10.6-23.2
				c0-9.7-6.7-17.5-12.3-22.5c-8.4-7.3-19.7-12.4-31.1-13.9c-12.8-1.7-24.4,1.2-32.7,8.3c-0.8,0.7-0.9,2-0.2,2.8
				c0.7,0.8,2,1,2.8,0.2c7.5-6.3,18-8.9,29.6-7.4c10.6,1.4,21.2,6.2,29,13c1.7,1.5,3.8,3.6,5.8,6.1c-0.1,0-0.2,0-0.3,0
				c-6.2-0.5-12.5,1.4-17.5,5.1c-9.9,7.5-12.9,20.6-8.5,36c4,13.7,12.2,26.4,23.1,35.6c0.4,0.3,0.8,0.5,1.3,0.5
				c0.6,0,1.1-0.2,1.5-0.7c0.7-0.8,0.6-2.1-0.2-2.8C130.4,200,122.7,188.1,118.9,175.1z"/>
		</g>
		<g>
			<path class="st1" d="M129.1,186.8c0.1,0,0.1,0,0.2,0c12.9-1.4,24.9-10.4,29.7-22.5c4.8-12.1,2.4-26.9-6-36.8
				c-0.7-0.8-2-1-2.8-0.2c-0.8,0.7-1,2-0.2,2.8c7.5,8.8,9.6,22,5.3,32.7c-4.3,10.7-14.9,18.8-26.4,20c-1.1,0.1-1.9,1.1-1.8,2.2
				C127.2,186,128.1,186.8,129.1,186.8z"/>
		</g>
		<g>
			<path class="st1" d="M161,177c0.5-1,0.2-2.2-0.8-2.7c-1-0.5-2.2-0.2-2.7,0.8c-4.7,8.6-12.8,15.4-22.1,18.5
				c-1.1,0.4-1.6,1.5-1.3,2.5c0.3,0.8,1.1,1.4,1.9,1.4c0.2,0,0.4,0,0.6-0.1C146.9,194,155.8,186.5,161,177z"/>
		</g>
		<g>
			<path class="st1" d="M165.9,165.7c5-10,4.8-22.4-0.5-32.3c-0.5-1-1.7-1.3-2.7-0.8c-1,0.5-1.3,1.7-0.8,2.7
				c4.7,8.7,4.9,19.7,0.5,28.6c-0.5,1-0.1,2.2,0.9,2.7c0.3,0.1,0.6,0.2,0.9,0.2C164.9,166.8,165.6,166.4,165.9,165.7z"/>
		</g>
		<g>
			<path class="st1" d="M143.1,197.4l-6.2,1.6c-1.1,0.3-1.7,1.4-1.5,2.4c0.2,0.9,1,1.5,1.9,1.5c0.2,0,0.3,0,0.5-0.1l6.2-1.6
				c1.1-0.3,1.7-1.4,1.5-2.4C145.3,197.8,144.2,197.1,143.1,197.4z"/>
		</g>
		<g>
			<path class="st1" d="M155,198.7c-3.4,2.9-7.5,4.9-11.9,5.8c-1.1,0.2-1.8,1.3-1.6,2.4c0.2,0.9,1,1.6,2,1.6c0.1,0,0.3,0,0.4,0
				c5-1,9.8-3.4,13.7-6.7c0.8-0.7,0.9-2,0.2-2.8C157.2,198,155.9,197.9,155,198.7z"/>
		</g>
		<g>
			<path class="st1" d="M179.5,149.5c0.1,1,1,1.8,2,1.8c0.1,0,0.1,0,0.2,0c1.1-0.1,1.9-1.1,1.8-2.2c-0.5-4.1-2.2-8.1-4.9-11.2
				c-0.7-0.8-2-0.9-2.8-0.2c-0.8,0.7-0.9,2-0.2,2.8C177.8,143,179.2,146.2,179.5,149.5z"/>
		</g>
		<g>
			<path class="st1" d="M165.6,179.5c0.4,0.3,0.8,0.4,1.2,0.4c0.6,0,1.2-0.3,1.6-0.8c3.7-5.2,6.1-11.3,6.8-17.6
				c0.1-1.1-0.7-2.1-1.8-2.2c-1.1-0.1-2.1,0.7-2.2,1.8c-0.6,5.7-2.7,11.1-6,15.7C164.5,177.6,164.7,178.8,165.6,179.5z"/>
		</g>
		<g>
			<path class="st1" d="M172.5,143.8c-1.1,0.3-1.6,1.5-1.3,2.5c0.9,2.7,1.1,5.7,0.8,8.5c-0.1,1.1,0.6,2.1,1.7,2.3c0.1,0,0.2,0,0.3,0
				c1,0,1.9-0.7,2-1.7c0.5-3.4,0.1-7-0.9-10.3C174.7,144,173.5,143.4,172.5,143.8z"/>
		</g>
		<g>
			<path class="st1" d="M118.7,133.8c-5.9,3.3-10.5,8.6-13.1,14.8c-0.4,1,0.1,2.2,1.1,2.6c0.3,0.1,0.5,0.2,0.8,0.2
				c0.8,0,1.5-0.5,1.9-1.2c2.2-5.4,6.3-10,11.3-12.9c1-0.5,1.3-1.8,0.8-2.7C120.9,133.6,119.7,133.2,118.7,133.8z"/>
		</g>
		<g>
			<path class="st1" d="M130.1,114.7c-0.4,1,0.1,2.2,1.1,2.6c5.6,2.3,10.8,5.5,15.4,9.4c0.4,0.3,0.8,0.5,1.3,0.5
				c0.6,0,1.1-0.2,1.5-0.7c0.7-0.8,0.6-2.1-0.2-2.8c-4.9-4.2-10.5-7.5-16.4-10C131.7,113.2,130.5,113.7,130.1,114.7z"/>
		</g>
		<g>
			<path class="st1" d="M159.4,130.9c0.4,0.5,1,0.8,1.6,0.8c0.4,0,0.8-0.1,1.2-0.4c0.9-0.7,1.1-1.9,0.4-2.8
				c-3.2-4.3-7.3-8-11.9-10.7c-1-0.6-2.2-0.3-2.8,0.7c-0.6,1-0.3,2.2,0.7,2.8C152.8,123.7,156.5,127,159.4,130.9z"/>
		</g>
		<g>
			<path class="st1" d="M87,103.3c0.3,0,0.5,0,0.8-0.2c7-2.9,14.6-3.8,22.1-2.6c1.1,0.2,2.1-0.6,2.3-1.7c0.2-1.1-0.6-2.1-1.7-2.3
				c-8.2-1.3-16.6-0.3-24.3,2.9c-1,0.4-1.5,1.6-1.1,2.6C85.5,102.9,86.2,103.3,87,103.3z"/>
		</g>
		<g>
			<path class="st1" d="M84,112.1c0.3,0,0.7-0.1,1-0.3c5.4-3.2,11.8-4.6,18-3.9c1.1,0.1,2.1-0.7,2.2-1.8c0.1-1.1-0.7-2.1-1.8-2.2
				c-7.1-0.8-14.4,0.8-20.5,4.4c-1,0.6-1.3,1.8-0.7,2.8C82.6,111.7,83.3,112.1,84,112.1z"/>
		</g>
		<g>
			<path class="st1" d="M161.1,111.3c-0.7,0.9-0.5,2.1,0.4,2.8l5.4,4.2c0.4,0.3,0.8,0.4,1.2,0.4c0.6,0,1.2-0.3,1.6-0.8
				c0.7-0.9,0.5-2.1-0.4-2.8l-5.4-4.2C163.1,110.3,161.8,110.5,161.1,111.3z"/>
		</g>
		<g>
			<path class="st1" d="M104.1,80.2l23.2,5.4c0.2,0,0.3,0.1,0.5,0.1c0.9,0,1.7-0.6,2-1.6c0.3-1.1-0.4-2.2-1.5-2.4L105,76.3
				c-1.1-0.3-2.2,0.4-2.4,1.5C102.4,78.9,103,80,104.1,80.2z"/>
		</g>
		<g>
			<path class="st1" d="M132.2,85.3c-0.3,1.1,0.4,2.2,1.4,2.4c6,1.5,11.7,3.9,17,7.1c0.3,0.2,0.7,0.3,1,0.3c0.7,0,1.4-0.4,1.7-1
				c0.6-1,0.3-2.2-0.7-2.8c-5.6-3.4-11.7-5.9-18.1-7.5C133.6,83.6,132.5,84.2,132.2,85.3z"/>
		</g>
		<g>
			<path class="st1" d="M134.4,156.4c2.6,0,5.1-0.8,7.2-2.3c0.9-0.7,1.1-1.9,0.4-2.8c-0.7-0.9-1.9-1.1-2.8-0.4
				c-3.2,2.4-8.3,1.9-10.9-1.1c-0.7-0.8-2-0.9-2.8-0.2c-0.8,0.7-0.9,2-0.2,2.8C127.6,155,131,156.4,134.4,156.4z"/>
		</g>
		<g>
			<path class="st1" d="M135.2,172.4c-0.5-1-1.7-1.4-2.7-0.8c-2.9,1.5-6.3,2.1-9.6,1.6c-1.1-0.2-2.1,0.6-2.3,1.7
				c-0.2,1.1,0.6,2.1,1.7,2.3c1,0.2,2,0.2,3,0.2c3.1,0,6.3-0.8,9.1-2.2C135.4,174.6,135.8,173.4,135.2,172.4z"/>
		</g>
		<g>
			<path class="st1" d="M107.3,83.8c-1.1-0.1-2.1,0.7-2.2,1.8c-0.1,1.1,0.7,2.1,1.8,2.2c5,0.4,10.1,1.4,14.9,2.9
				c0.2,0.1,0.4,0.1,0.6,0.1c0.9,0,1.6-0.5,1.9-1.4c0.3-1.1-0.3-2.2-1.3-2.5C118,85.3,112.7,84.2,107.3,83.8z"/>
		</g>
	</g>
	<g>
		<path class="st2" d="M224.3,126c-6.8,0-12.4-1.3-16.9-5.9l7-7c2.3,2.3,6.4,3.1,10,3.1c4.3,0,6.4-1.4,6.4-4c0-1.1-0.3-1.9-0.9-2.6
			c-0.6-0.6-1.5-1-2.9-1.2l-5.4-0.8c-3.9-0.6-7-1.9-9-3.9c-2.1-2.1-3.1-5.1-3.1-9c0-8.1,6.1-14.1,16.3-14.1c6.4,0,11.2,1.5,15,5.3
			l-6.9,6.9c-2.8-2.8-6.5-2.6-8.5-2.6c-3.8,0-5.4,2.2-5.4,4.1c0,0.6,0.2,1.4,0.9,2.1c0.6,0.6,1.5,1.1,3.1,1.3l5.4,0.8
			c4,0.6,6.9,1.8,8.8,3.7c2.4,2.3,3.3,5.6,3.3,9.8C241.5,121,233.7,126,224.3,126z"/>
		<path class="st2" d="M276.8,120.9c-3.3,3.3-7,5-12.5,5c-5.5,0-9.2-1.8-12.5-5c-4.7-4.7-4.5-11-4.5-17.7c0-6.7-0.2-13,4.5-17.7
			c3.3-3.3,7-5,12.5-5c5.5,0,9.2,1.8,12.5,5c4.7,4.7,4.5,11,4.5,17.7C281.3,110,281.5,116.2,276.8,120.9z M268.7,92.3
			c-0.8-1.1-2.4-1.9-4.4-1.9c-2,0-3.6,0.9-4.4,1.9c-1,1.3-1.6,2.8-1.6,11c0,8.1,0.6,9.6,1.6,10.9c0.8,1.1,2.4,2,4.4,2
			c2,0,3.6-0.9,4.4-2c1-1.3,1.6-2.8,1.6-10.9C270.3,95.1,269.7,93.6,268.7,92.3z"/>
		<path class="st2" d="M311.4,125.6l-7.9-16.6h-3.7v16.6h-11V81h17.7c9.9,0,15.2,7,15.2,14.4c0,6.1-3.8,9.9-7.3,11.7l9.7,18.6H311.4
			z M306,90.8h-6.2v9h6.2c3,0,4.8-2.2,4.8-4.5C310.8,93,309,90.8,306,90.8z"/>
		<path class="st2" d="M349.1,125.6h-19.4V81h18.5c9.3,0,14.2,5.2,14.2,12.9c0,5.1-3.5,7.9-4.9,8.8c1.8,1.1,5.5,3.4,5.5,9.7
			C363,120.9,357.1,125.6,349.1,125.6z M347.5,90.8h-6.8v7.3h6.8c3,0,3.9-1.9,3.9-3.6C351.5,92.7,350.5,90.8,347.5,90.8z
			 M348.1,107.9h-7.4v7.8h7.4c3,0,4-2.1,4-3.9C352.1,109.9,351.1,107.9,348.1,107.9z"/>
		<path class="st2" d="M398.6,120.9c-3.3,3.3-7,5-12.5,5c-5.5,0-9.2-1.8-12.5-5c-4.7-4.7-4.5-11-4.5-17.7c0-6.7-0.2-13,4.5-17.7
			c3.3-3.3,7-5,12.5-5c5.5,0,9.2,1.8,12.5,5c4.7,4.7,4.5,11,4.5,17.7C403.2,110,403.3,116.2,398.6,120.9z M390.6,92.3
			c-0.8-1.1-2.4-1.9-4.4-1.9c-2,0-3.6,0.9-4.4,1.9c-1,1.3-1.6,2.8-1.6,11c0,8.1,0.6,9.6,1.6,10.9c0.8,1.1,2.4,2,4.4,2
			c2,0,3.6-0.9,4.4-2c1-1.3,1.6-2.8,1.6-10.9C392.2,95.1,391.6,93.6,390.6,92.3z"/>
		<path class="st2" d="M224.3,179c-6.8,0-12.4-1.3-16.9-5.9l7-7c2.3,2.3,6.4,3.1,10,3.1c4.3,0,6.4-1.4,6.4-4c0-1.1-0.3-1.9-0.9-2.6
			c-0.6-0.6-1.5-1-2.9-1.2l-5.4-0.8c-3.9-0.6-7-1.9-9-3.9c-2.1-2.1-3.1-5.1-3.1-9c0-8.1,6.1-14.1,16.3-14.1c6.4,0,11.2,1.5,15,5.3
			l-6.9,6.9c-2.8-2.8-6.5-2.6-8.5-2.6c-3.8,0-5.4,2.2-5.4,4.1c0,0.6,0.2,1.4,0.9,2.1c0.6,0.6,1.5,1.1,3.1,1.3l5.4,0.8
			c4,0.6,6.9,1.8,8.8,3.7c2.4,2.3,3.3,5.6,3.3,9.8C241.5,174,233.7,179,224.3,179z"/>
		<path class="st2" d="M276.8,174c-3.3,3.3-7,5-12.5,5c-5.5,0-9.2-1.8-12.5-5c-4.7-4.7-4.5-11-4.5-17.7c0-6.7-0.2-13,4.5-17.7
			c3.3-3.3,7-5,12.5-5c5.5,0,9.2,1.8,12.5,5c4.7,4.7,4.5,11,4.5,17.7C281.3,163,281.5,169.3,276.8,174z M268.7,145.3
			c-0.8-1.1-2.4-1.9-4.4-1.9c-2,0-3.6,0.9-4.4,1.9c-1,1.3-1.6,2.8-1.6,11c0,8.1,0.6,9.6,1.6,10.9c0.8,1.1,2.4,2,4.4,2
			c2,0,3.6-0.9,4.4-2c1-1.3,1.6-2.8,1.6-10.9C270.3,148.1,269.7,146.6,268.7,145.3z"/>
		<path class="st2" d="M288.8,178.6V134h11v34.8h18.7v9.8H288.8z"/>
		<path class="st2" d="M324.9,178.6V134h11v44.6H324.9z"/>
		<path class="st2" d="M373.5,174.2c-3.1,3.1-7.4,4.4-12,4.4h-16.5V134h16.5c4.6,0,9,1.3,12,4.4c5.2,5.2,4.6,10.9,4.6,17.9
			S378.7,169,373.5,174.2z M366,146.3c-1-1.5-2.5-2.5-5.3-2.5h-4.8v25.1h4.8c2.8,0,4.3-1,5.3-2.5c0.9-1.3,1.2-2.4,1.2-10
			C367.2,148.8,366.9,147.5,366,146.3z"/>
		<path class="st2" d="M410.1,178.6L408,172h-13.7l-2.2,6.6h-11.5l16.2-44.6h8.5l16.2,44.6H410.1z M401.3,150.9l-4,11.9h7.8
			L401.3,150.9z"/>
		<path class="st2" d="M448.6,178.6l-7.9-16.6H437v16.6h-11V134h17.7c9.9,0,15.2,7,15.2,14.4c0,6.1-3.8,9.9-7.3,11.7l9.7,18.6H448.6
			z M443.2,143.8H437v9h6.2c3,0,4.8-2.2,4.8-4.5C448,146,446.2,143.8,443.2,143.8z"/>
		<path class="st2" d="M466.9,178.6V134h11v44.6H466.9z"/>
		<path class="st2" d="M514.9,174c-3.3,3.3-7,5-12.5,5c-5.5,0-9.2-1.8-12.5-5c-4.7-4.7-4.5-11-4.5-17.7c0-6.7-0.2-13,4.5-17.7
			c3.3-3.3,7-5,12.5-5c5.5,0,9.2,1.8,12.5,5c4.7,4.7,4.5,11,4.5,17.7C519.4,163,519.6,169.3,514.9,174z M506.8,145.3
			c-0.8-1.1-2.4-1.9-4.4-1.9s-3.6,0.9-4.4,1.9c-1,1.3-1.6,2.8-1.6,11c0,8.1,0.6,9.6,1.6,10.9c0.8,1.1,2.4,2,4.4,2s3.6-0.9,4.4-2
			c1-1.3,1.6-2.8,1.6-10.9C508.4,148.1,507.8,146.6,506.8,145.3z"/>
	</g>
	<g>
		<path class="st2" d="M214.5,211.5h-1.2v-4.8h-4.8v-1.2h4.8v-4.8h1.2v4.8h4.8v1.2h-4.8V211.5z"/>
		<path class="st2" d="M241.5,211.8c-1.2,0.9-2.7,1.4-4.2,1.4c-1.8,0-3.5-0.7-4.7-1.9c-1.7-1.7-1.7-3.4-1.7-7.7c0-4.3,0-5.9,1.7-7.7
			c1.2-1.2,2.9-1.9,4.7-1.9c1.8,0,3.5,0.7,4.7,1.9c1.7,1.7,1.7,3.4,1.7,7.7c0,3.9,0,5.7-1.4,7.2l2.2,2.2l-1,1L241.5,211.8z
			 M240.9,196.8c-1-1-2.2-1.5-3.6-1.5c-1.4,0-2.6,0.5-3.6,1.5c-1.4,1.4-1.5,2.8-1.5,6.9c0,4,0.1,5.5,1.5,6.9c1,1,2.2,1.5,3.6,1.5
			c1.2,0,2.3-0.4,3.2-1.1l-2.7-2.7l1-1l2.6,2.6c0.8-1.2,0.9-2.8,0.9-6.2C242.4,199.6,242.2,198.1,240.9,196.8z"/>
		<path class="st2" d="M255.7,213.3c-3.8,0-6.5-2.6-6.5-6.3v-12.8h1.4v12.6c0,3.1,2,5.2,5,5.2c3,0,5-2.1,5-5.2v-12.6h1.4V207
			C262.1,210.7,259.5,213.3,255.7,213.3z"/>
		<path class="st2" d="M268.3,194.2h11.5v1.3h-10v7.5h8.5v1.3h-8.5v7.6h10v1.3h-11.5V194.2z"/>
		<path class="st2" d="M298.4,213.3c-3.8,0-6.5-2.6-6.5-6.3v-12.8h1.4v12.6c0,3.1,2,5.2,5,5.2s5-2.1,5-5.2v-12.6h1.4V207
			C304.8,210.7,302.1,213.3,298.4,213.3z"/>
		<path class="st2" d="M312.4,196.7v16.4H311v-18.9h1.4l10.9,16.4v-16.4h1.4v18.9h-1.4L312.4,196.7z"/>
		<path class="st2" d="M342.1,213.1l-6.2-18.9h1.5l5.3,16.4l5.3-16.4h1.5l-6.2,18.9H342.1z"/>
		<path class="st2" d="M361.9,208.5h-8.8l-1.6,4.6h-1.5l6.9-18.9h1.3l6.9,18.9h-1.5L361.9,208.5z M353.5,207.2h7.9l-4-11.1
			L353.5,207.2z"/>
		<path class="st2" d="M373.7,213.3c-2.8,0-4.6-0.8-6.3-2.5l1-1c1.7,1.7,3.1,2.2,5.4,2.2c3,0,4.9-1.4,4.9-3.9c0-1.1-0.3-2-1-2.7
			c-0.7-0.6-1.2-0.8-2.7-1l-2.2-0.3c-1.4-0.2-2.5-0.7-3.4-1.4c-1-0.8-1.5-2-1.5-3.5c0-3.2,2.2-5.2,5.9-5.2c2.3,0,3.8,0.6,5.4,2
			l-0.9,0.9c-1.1-1.1-2.4-1.8-4.6-1.8c-2.8,0-4.4,1.5-4.4,3.9c0,1.1,0.3,1.9,1,2.5c0.7,0.6,1.8,1,2.8,1.2l2,0.3
			c1.8,0.2,2.6,0.6,3.4,1.2c1,0.8,1.6,2.1,1.6,3.7C380.1,211.2,377.7,213.3,373.7,213.3z"/>
		<path class="st2" d="M395.6,211.3c-1.2,1.2-2.9,1.9-4.7,1.9c-1.8,0-3.5-0.7-4.7-1.9c-1.7-1.7-1.8-3.4-1.8-7.7c0-4.3,0-5.9,1.8-7.7
			c1.2-1.2,2.9-1.9,4.7-1.9c1.8,0,3.5,0.7,4.7,1.9c1.7,1.7,1.8,3.4,1.8,7.7C397.4,207.9,397.3,209.6,395.6,211.3z M394.5,196.8
			c-1-1-2.2-1.5-3.6-1.5c-1.4,0-2.6,0.5-3.6,1.5c-1.4,1.4-1.5,2.8-1.5,6.9c0,4,0.1,5.5,1.5,6.9c1,1,2.2,1.5,3.6,1.5
			c1.4,0,2.6-0.5,3.6-1.5c1.4-1.4,1.5-2.8,1.5-6.9C395.9,199.6,395.8,198.1,394.5,196.8z"/>
		<path class="st2" d="M421.5,211.4c-1.1,1.1-2.7,1.7-4.7,1.7h-6.3v-18.9h6.3c2,0,3.6,0.6,4.7,1.7c1.9,1.9,1.8,4.9,1.8,7.5
			C423.3,205.9,423.4,209.5,421.5,211.4z M420.5,197c-1.1-1.1-2.5-1.5-4.1-1.5h-4.6v16.3h4.6c1.5,0,3-0.3,4.1-1.5
			c1.5-1.6,1.4-4.9,1.4-7C421.9,201.3,422,198.5,420.5,197z"/>
		<path class="st2" d="M429,194.2h11.5v1.3h-10v7.5h8.5v1.3h-8.5v7.6h10v1.3H429V194.2z"/>
		<path class="st2" d="M462.3,208.5h-8.8l-1.6,4.6h-1.5l6.9-18.9h1.3l6.9,18.9H464L462.3,208.5z M454,207.2h7.9l-4-11.1L454,207.2z"
			/>
		<path class="st2" d="M479.8,211.1c-1.2,1.4-3,2.2-5,2.2c-1.8,0-3.5-0.7-4.7-1.9c-1.7-1.7-1.7-3.4-1.7-7.7c0-4.3,0-5.9,1.7-7.7
			c1.2-1.2,2.9-1.9,4.7-1.9c3.3,0,5.9,2.2,6.4,5.5h-1.4c-0.6-2.6-2.5-4.2-5-4.2c-1.4,0-2.6,0.5-3.6,1.5c-1.4,1.4-1.5,2.8-1.5,6.9
			c0,4,0.1,5.5,1.5,6.9c1,1,2.2,1.5,3.6,1.5c1.5,0,2.9-0.6,3.9-1.8c0.8-1,1.1-2.1,1.1-3.7v-1.7h-5.1v-1.3h6.5v3.1
			C481.4,208.5,481,209.9,479.8,211.1z"/>
		<path class="st2" d="M493.2,213.3c-3.8,0-6.5-2.6-6.5-6.3v-12.8h1.4v12.6c0,3.1,2,5.2,5,5.2c3,0,5-2.1,5-5.2v-12.6h1.4V207
			C499.7,210.7,497,213.3,493.2,213.3z"/>
		<path class="st2" d="M515.3,208.5h-8.8l-1.6,4.6h-1.5l6.9-18.9h1.3l6.9,18.9H517L515.3,208.5z M507,207.2h7.9l-4-11.1L507,207.2z"
			/>
	</g>
</g>
</svg>
